<svg width="390" height="260" viewBox="0 0 390 260" fill="none" xmlns="http://www.w3.org/2000/svg">
<path d="M299.217 150.811L298.53 157.369C296.743 161.641 294.956 165.909 293.171 170.175C292.548 171.673 291.922 173.169 291.293 174.661C291.008 175.36 290.604 176.003 290.098 176.563C290.073 176.6 290.04 176.632 290.001 176.655C289.962 176.678 289.918 176.691 289.873 176.695C289.722 176.695 289.667 176.493 289.656 176.342C289.569 174.724 289.377 173.114 289.077 171.522C287.405 163.834 278.479 161.017 271.479 161.192C268.678 161.234 265.918 161.874 263.384 163.066C259.728 164.836 258.304 169.756 258.11 169.939L257.955 170.571L255.448 181.014C254.92 183.342 254.517 184.572 252.367 185.193C252.297 185.216 250.155 186.357 250.085 186.357C249.255 186.59 251.529 186.09 250.628 185.938L247.776 185.492L246.562 185.213L228.839 181.018C229.526 181.134 230.228 181.262 230.942 181.406L235.056 182.388L233.969 177.172C231.14 160.936 235.828 146.205 243.814 138.207C245.917 136.104 246.961 135.564 249.414 134.163L250.791 137.427C250.791 137.427 264.886 141.63 268.208 128.734C269.55 128.851 272.131 128.831 273.462 129.122C280.4 130.577 286.666 134.275 291.293 139.647C291.701 140.112 292.1 140.593 292.496 141.082L292.706 141.339C292.95 141.645 293.21 141.959 293.455 142.274L293.629 142.522C295.658 145.17 297.524 147.938 299.217 150.811Z" fill="#505050"/>
<path d="M131.746 82.9327C133.981 71.7566 143.473 60.9297 170.583 58.45C230.841 52.9434 198.267 36.3306 217.888 18.15C237.508 -0.030591 311.693 29.8811 292.286 76.5957C272.88 123.31 336.944 71.4617 364.077 130.633C368.008 139.22 369.901 148.599 369.607 158.038C369.265 168.011 366.697 177.781 362.091 186.634C353.425 203.561 337.328 218.641 314.049 227.986C310.613 229.385 307.017 230.644 303.261 231.761" stroke="#D1D1D1" stroke-width="1.68" stroke-miterlimit="10"/>
<path d="M322.625 174.85C322.155 180.334 318.438 181.226 318.438 181.226C315.295 183.085 310.467 181.086 309.493 177.602C309.479 177.564 309.471 177.525 309.47 177.485C308.694 174.501 307.18 170.667 305.147 166.472C301.227 156.988 296.132 147.426 289.597 139.863C284.97 134.492 278.704 130.794 271.766 129.339C271.743 129.339 271.731 129.315 271.708 129.315C262.507 126.545 258.029 120.887 256.088 115.462C256.088 115.462 256.088 115.462 256.088 115.438C255.258 112.012 254.412 108.671 254.866 106.649C255.642 103.106 256.03 99.2758 255.064 98.4996C253.849 97.4829 251.653 98.2357 246.065 99.3611C241.226 100.355 238.645 99.7919 238.063 96.8348C237.971 96.3762 237.924 95.9093 237.923 95.4417C237.9 95.7367 236.759 94.5647 236.705 94.8441C236.34 96.3537 235.61 96.959 234.019 97.6226C231.656 98.6044 230.69 102.396 230.341 104.922C229.976 107.611 231.186 111.321 232.145 113.847C230.919 112.446 229.514 112.609 227.318 113.459C226.767 113.669 225.377 113.611 224.279 113.226C224.434 113.093 224.617 112.996 224.815 112.943C225.168 112.827 222.606 111.554 222.979 111.472C226.708 110.63 228.8 107.522 228.358 104.786C227.259 97.8981 228.722 89.7955 233.375 84.4286C238.505 78.5262 246.876 77.2999 253.962 80.0008C259.527 82.1157 264.789 86.4543 266.717 92.2402C266.717 92.2635 266.717 92.2868 266.741 92.3101C266.986 93.0458 267.174 93.7998 267.303 94.5647C268.013 98.8683 266.496 103.23 265.654 107.483C265.351 109.016 266.12 110.689 266.283 111.903C267.218 119.199 275.639 121.259 282.302 124.356C296.307 130.879 307.743 142.032 315.434 155.595C320.541 164.575 322.365 170.698 322.625 174.85Z" fill="#383494"/>
<path d="M248.793 132.715C248.642 132.796 248.49 132.878 248.35 132.971C245.835 134.413 243.523 136.182 241.474 138.233C233.492 146.231 228.804 160.962 231.633 177.198L232.719 182.386" stroke="#141414" stroke-width="1.68" stroke-miterlimit="10"/>
<path d="M319.42 241.66C319.421 229.539 318.373 217.441 316.288 205.5C314.893 197.399 312.972 189.397 310.537 181.545C309.074 176.776 307.285 171.63 305.158 166.465C303.184 161.632 300.902 156.929 298.329 152.387C295.833 147.938 292.913 143.742 289.609 139.856C284.982 134.485 278.716 130.787 271.778 129.332C270.447 129.05 269.1 128.848 267.746 128.727" stroke="#141414" stroke-width="1.68" stroke-miterlimit="10"/>
<path d="M175.985 136.174L175.787 136.139C173.417 135.742 170.985 135.946 168.715 136.732C166.444 137.519 164.407 138.863 162.791 140.64L149.519 155.099L147.967 156.807C147.87 156.912 147.78 157.022 147.695 157.137" stroke="#141414" stroke-width="1.68" stroke-miterlimit="10"/>
<path d="M156.818 160.911L164.102 152.832L164.114 152.82" stroke="#141414" stroke-width="1.68" stroke-miterlimit="10"/>
<path d="M220.181 202.645L254.443 214.718C257.743 215.88 261.254 216.319 264.738 216.004C268.222 215.688 271.598 214.627 274.635 212.89C277.672 211.154 280.3 208.783 282.339 205.941C284.379 203.098 285.782 199.85 286.454 196.417L294.561 155.034C294.975 152.909 294.956 150.722 294.504 148.605C294.052 146.487 293.176 144.484 291.93 142.713C291.581 142.215 291.203 141.738 290.796 141.285" stroke="#141414" stroke-width="1.68" stroke-miterlimit="10"/>
<path d="M197.507 200.975C193.145 203.92 189.94 212.865 188.236 218.736C187.945 219.721 187.341 220.585 186.517 221.197C185.693 221.81 184.692 222.14 183.665 222.136C182.97 222.136 182.282 221.985 181.651 221.693C180.682 221.239 179.895 220.471 179.416 219.515C178.937 218.558 178.795 217.467 179.012 216.42C181.864 202.473 191.931 174.94 226.511 181.009C227.201 181.126 227.904 181.254 228.614 181.397L232.72 182.387L244.233 185.192L247.338 185.941C248.516 186.227 249.75 186.183 250.904 185.813C250.976 185.799 251.045 185.78 251.114 185.755C252.177 185.39 253.131 184.763 253.888 183.931C254.644 183.1 255.178 182.091 255.441 180.998L258.06 170.101L258.211 169.468L261.642 155.223" stroke="#141414" stroke-width="1.68" stroke-miterlimit="10"/>
<path d="M180.642 156.32H168.907C167.569 156.32 166.286 155.788 165.34 154.843C164.393 153.897 163.862 152.613 163.862 151.275C163.862 149.937 164.393 148.654 165.34 147.708C166.286 146.762 167.569 146.23 168.907 146.23H185.531" stroke="#141414" stroke-width="1.68" stroke-miterlimit="10"/>
<path d="M171.635 156.316C171.468 158.373 170.684 159.894 169.527 160.946C166.547 163.662 161.087 163.352 157.288 161.493" stroke="#141414" stroke-width="1.68" stroke-miterlimit="10"/>
<path d="M149.535 155.097C146.17 151.03 146.857 145.515 149.469 141.254C156.877 129.162 173.804 131.483 184.782 136.508C193.677 140.568 201.469 146.668 209.056 152.753C212.761 155.725 216.401 158.822 219.921 162.066C220.567 162.651 221.338 163.082 222.174 163.325C223.011 163.569 223.892 163.62 224.751 163.475C225.61 163.329 226.425 162.99 227.134 162.484C227.844 161.978 228.429 161.318 228.847 160.553C230.787 156.971 232.886 153.063 233.282 151.98" stroke="#141414" stroke-width="1.68" stroke-miterlimit="10"/>
<path d="M169.531 160.949C169.531 160.949 187.037 170.445 200.04 184.089" stroke="#141414" stroke-width="1.68" stroke-miterlimit="10"/>
<path d="M193.234 206.127C191.294 209.441 192.963 214.307 196.63 215.471C201.313 216.982 206.265 217.478 211.155 216.926C216.491 216.305 220.038 211.901 222.374 206.856C222.543 206.481 222.631 206.074 222.633 205.662C222.634 205.251 222.549 204.843 222.383 204.467C222.217 204.09 221.973 203.752 221.668 203.476C221.363 203.2 221.003 202.991 220.612 202.863C219.906 202.631 219.139 202.673 218.462 202.981C217.786 203.29 217.251 203.842 216.964 204.528C216.188 206.321 214.989 208.564 213.398 209.573" stroke="#141414" stroke-width="1.68" stroke-miterlimit="10"/>
<path d="M202.373 205.504C202.373 205.504 197.581 210.657 201.36 216.113C201.527 216.343 201.722 216.549 201.943 216.727" stroke="#141414" stroke-width="1.68" stroke-miterlimit="10"/>
<path d="M208.695 206.355C208.695 206.355 204.263 216.329 209.948 217.058" stroke="#141414" stroke-width="1.68" stroke-miterlimit="10"/>
<path d="M366.033 241.668H91.582" stroke="#141414" stroke-width="1.68" stroke-miterlimit="10"/>
<path d="M199.552 222.875H172.182C171.904 225.459 170.68 227.848 168.746 229.584C166.811 231.319 164.303 232.277 161.704 232.274H69.7109C69.716 234.762 70.7067 237.147 72.4662 238.906C74.2252 240.665 76.6099 241.656 79.0981 241.661H199.552C202.044 241.66 204.434 240.672 206.199 238.912C207.965 237.153 208.961 234.766 208.97 232.274V225.964C208.97 225.14 208.643 224.351 208.061 223.769C207.479 223.187 206.689 222.859 205.866 222.859L199.552 222.875Z" stroke="#141414" stroke-width="1.68" stroke-miterlimit="10"/>
<path d="M157.288 161.495C158.095 162.61 158.675 163.873 158.996 165.212L171.961 219.285C172.247 220.458 172.322 221.674 172.182 222.874C171.904 225.458 170.68 227.847 168.746 229.583C166.811 231.318 164.303 232.276 161.704 232.273H68.0035C65.6371 232.272 63.3394 231.475 61.4817 230.009C59.6237 228.544 58.3136 226.495 57.7626 224.193L44.8208 170.125C44.4486 168.577 44.4327 166.965 44.7738 165.409C45.1149 163.854 45.8041 162.397 46.7902 161.146C47.7758 159.896 49.0324 158.885 50.4651 158.191C51.8978 157.496 53.4694 157.136 55.0617 157.137H148.755C150.294 157.134 151.815 157.47 153.209 158.123C154.603 158.776 155.835 159.728 156.819 160.913L157.288 161.495Z" stroke="#141414" stroke-width="1.68" stroke-miterlimit="10"/>
<path d="M142.612 94.2026C142.014 93.5002 141.385 92.825 140.729 92.1691C137.049 88.4764 132.676 85.5469 127.861 83.5488C123.045 81.551 117.882 80.5242 112.669 80.5274H63.5482C58.3362 80.525 53.1746 81.5503 48.3588 83.5441C43.543 85.538 39.1676 88.4612 35.4822 92.147C31.7968 95.8328 28.874 100.209 26.8807 105.024C24.8874 109.841 23.8627 115.002 23.8653 120.214V120.497C23.8602 124.195 24.8021 127.833 26.6011 131.064C28.6227 133.123 31.0357 134.757 33.6981 135.869C36.3606 136.981 39.2186 137.55 42.1041 137.541H90.2623C91.7318 137.541 93.1413 138.125 94.1805 139.164C95.2197 140.203 95.8038 141.613 95.8038 143.083C95.8057 144.554 96.3917 145.964 97.4328 147.004C98.474 148.044 99.8854 148.628 101.357 148.628H101.477L113.367 148.325C113.367 148.209 113.344 148.104 113.344 147.999C112.316 147.646 111.424 146.98 110.793 146.095C110.162 145.21 109.824 144.15 109.824 143.063V142.807C109.826 141.337 110.41 139.929 111.448 138.89C112.488 137.851 113.897 137.266 115.366 137.266H127.089C132.853 137.266 138.38 134.976 142.456 130.901C146.531 126.825 148.82 121.298 148.82 115.534C148.841 107.975 146.685 100.57 142.612 94.2026ZM57.5488 117.195C55.6695 117.196 53.832 116.639 52.2693 115.596C50.7062 114.552 49.4881 113.068 48.7686 111.332C48.0495 109.595 47.8613 107.685 48.228 105.842C48.5947 103.998 49.4997 102.305 50.8292 100.977C52.1583 99.6478 53.8518 98.7436 55.6951 98.3773C57.5384 98.0114 59.4488 98.2003 61.185 98.9206C62.9207 99.6408 64.4039 100.859 65.447 102.423C66.4901 103.986 67.0462 105.824 67.0447 107.703C67.0416 110.22 66.04 112.633 64.2599 114.413C62.4795 116.192 60.0658 117.193 57.5488 117.195ZM88.5432 117.195C86.6642 117.194 84.8275 116.636 83.2655 115.592C81.7036 114.547 80.4867 113.063 79.7687 111.326C79.0504 109.59 78.8634 107.679 79.2309 105.837C79.5984 103.994 80.5045 102.302 81.834 100.974C83.1635 99.6459 84.8566 98.7421 86.6999 98.3769C88.5432 98.0114 90.4532 98.2011 92.1886 98.9214C93.924 99.6416 95.4072 100.861 96.4499 102.424C97.4926 103.987 98.0483 105.824 98.0467 107.703C98.0467 108.95 97.8007 110.186 97.323 111.338C96.8453 112.491 96.1452 113.537 95.2624 114.419C94.38 115.301 93.3322 115.999 92.1793 116.476C91.0264 116.952 89.7908 117.197 88.5432 117.195ZM118.063 117.195C116.184 117.194 114.348 116.635 112.786 115.59C111.225 114.545 110.009 113.06 109.291 111.323C108.574 109.587 108.387 107.677 108.755 105.834C109.123 103.992 110.029 102.3 111.359 100.973C112.689 99.6451 114.382 98.7417 116.225 98.3765C118.068 98.0118 119.978 98.2011 121.713 98.9218C123.448 99.642 124.931 100.861 125.973 102.424C127.016 103.987 127.572 105.824 127.57 107.703C127.57 108.951 127.324 110.186 126.846 111.339C126.369 112.492 125.668 113.539 124.785 114.42C123.902 115.302 122.853 116.001 121.7 116.477C120.546 116.953 119.31 117.197 118.063 117.195Z" fill="#6159FF"/>
<path d="M148.821 115.539C148.821 121.302 146.531 126.83 142.456 130.905C138.38 134.98 132.853 137.27 127.089 137.27H115.374C113.905 137.271 112.497 137.854 111.458 138.893C110.419 139.931 109.834 141.339 109.832 142.808V143.064C109.832 144.151 110.17 145.21 110.801 146.096C111.432 146.98 112.324 147.646 113.352 148C113.893 148.188 114.463 148.282 115.036 148.279L113.375 148.326L101.478 148.628H101.349C99.8787 148.628 98.4681 148.045 97.427 147.006C96.3858 145.967 95.7994 144.558 95.7963 143.087C95.7963 141.617 95.2127 140.208 94.1731 139.168C93.1338 138.129 91.7244 137.545 90.2548 137.545H42.1044C36.3409 137.545 30.8134 135.256 26.738 131.18C22.6626 127.105 20.373 121.578 20.373 115.814V115.531C20.3736 110.322 21.4 105.165 23.3937 100.352C25.3875 95.5403 28.3095 91.168 31.993 87.4853C35.6765 83.8026 40.0492 80.8813 44.8616 78.8886C49.6739 76.896 54.832 75.8703 60.0405 75.8711H109.146C119.666 75.8719 129.756 80.0513 137.196 87.49C144.636 94.9287 148.818 105.017 148.821 115.539Z" stroke="#141414" stroke-width="1.68" stroke-miterlimit="10"/>
<path d="M271.766 129.32C271.742 129.32 271.731 129.297 271.708 129.297C262.507 126.526 258.028 120.868 256.088 115.443C256.088 115.443 256.088 115.443 256.088 115.42C254.571 111.19 254.606 107.096 255.153 104.651C255.48 103.356 255.688 102.034 255.774 100.7C255.902 96.9246 253.131 97.8482 245.207 99.4276C241.567 100.165 239.239 98.7834 238.074 96.8198C237.961 96.6487 237.863 96.4682 237.779 96.2804C237.236 95.1376 237.011 93.8694 237.128 92.6094" stroke="#141414" stroke-width="1.68" stroke-miterlimit="10"/>
<path d="M232.568 114.356C232.428 114.158 232.285 113.968 232.145 113.816C230.919 112.415 229.514 112.578 227.317 113.428C226.766 113.638 225.377 113.58 224.279 113.195C223.355 112.866 222.665 112.295 222.979 111.441C223.06 111.266 223.18 111.111 223.33 110.989C223.48 110.868 223.656 110.782 223.844 110.739C224.21 110.647 224.581 110.573 224.954 110.518C228.722 109.676 227.88 105.314 227.422 102.578C226.312 95.694 227.787 87.5913 232.486 82.2244C237.663 76.3221 246.13 75.0919 253.282 77.7928C259.573 80.1677 265.491 85.3211 266.717 92.2092C266.717 92.2325 266.717 92.2558 266.74 92.2791C266.764 92.3023 266.74 92.3373 266.74 92.3606C267.466 96.6641 266.74 101.329 265.898 105.586C265.394 108.108 265.584 110.169 266.286 111.872C268.487 117.449 275.91 119.393 281.894 122.152C296.054 128.675 307.591 139.828 315.368 153.391C321.507 164.148 322.962 170.764 322.625 174.847C322.155 180.33 318.438 181.222 318.438 181.222C315.294 183.081 310.463 181.083 309.493 177.598C309.479 177.561 309.471 177.521 309.47 177.481C308.693 174.497 307.18 170.663 305.147 166.468" stroke="#141414" stroke-width="1.68" stroke-miterlimit="10"/>
<path d="M237.112 92.6094C237.112 94.6855 236.134 96.7345 234.008 97.6076C231.617 98.5933 230.647 101.189 230.298 103.716C229.81 107.415 230.606 111.169 232.552 114.352C234.357 117.348 237.295 120.651 241.455 120.651C249.076 120.651 252.344 116.976 252.344 116.976" stroke="#141414" stroke-width="1.68" stroke-miterlimit="10"/>
<path d="M245.025 104.909C245.741 104.909 246.321 104.329 246.321 103.613C246.321 102.897 245.741 102.316 245.025 102.316C244.309 102.316 243.729 102.897 243.729 103.613C243.729 104.329 244.309 104.909 245.025 104.909Z" fill="#141414"/>
<path d="M233.623 105.663C234.339 105.663 234.919 105.082 234.919 104.366C234.919 103.651 234.339 103.07 233.623 103.07C232.907 103.07 232.327 103.651 232.327 104.366C232.327 105.082 232.907 105.663 233.623 105.663Z" fill="#141414"/>
<path d="M239.215 102.395C239.215 102.395 238.567 107.513 238.827 108.215C239.087 108.918 240.709 108.115 240.709 108.115" stroke="#141414" stroke-width="1.68" stroke-miterlimit="10"/>
<path d="M241.617 112.591C244.392 113.612 247.256 112.312 248.094 109.816" stroke="#141414" stroke-width="1.68" stroke-miterlimit="10"/>
<path d="M251.733 105.485C253.615 102.821 252.929 99.0983 250.2 97.17C247.471 95.2421 243.733 95.839 241.851 98.5034C239.969 101.167 240.655 104.89 243.384 106.818C246.113 108.746 249.851 108.149 251.733 105.485Z" stroke="#141414" stroke-width="1.68" stroke-miterlimit="10"/>
<path d="M236.576 106.247C238.459 103.582 237.772 99.8596 235.043 97.9317C232.314 96.0039 228.576 96.6007 226.694 99.2651C224.812 101.929 225.498 105.652 228.227 107.58C230.956 109.508 234.694 108.911 236.576 106.247Z" stroke="#141414" stroke-width="1.68" stroke-miterlimit="10"/>
<path d="M231.528 98.6426C232.606 98.6395 233.645 99.0443 234.437 99.7754C235.228 100.507 235.714 101.51 235.797 102.585C235.84 103.119 235.775 103.656 235.606 104.164C235.436 104.672 235.166 105.141 234.811 105.542C234.452 105.949 234.015 106.279 233.525 106.512C233.036 106.746 232.504 106.878 231.963 106.901H231.745C230.667 106.904 229.627 106.498 228.835 105.766C228.044 105.034 227.558 104.029 227.477 102.954C227.434 102.42 227.5 101.883 227.67 101.375C227.84 100.867 228.111 100.398 228.466 99.9969C228.825 99.5914 229.262 99.2624 229.751 99.0287C230.239 98.7955 230.77 98.6628 231.311 98.6387H231.528V98.6426ZM231.528 97.7617H231.268C230.614 97.7908 229.972 97.9515 229.381 98.2332C228.79 98.5153 228.262 98.9131 227.827 99.4032C227.393 99.8933 227.062 100.466 226.853 101.086C226.644 101.707 226.562 102.363 226.611 103.016C226.716 104.31 227.304 105.517 228.257 106.398C229.21 107.279 230.459 107.77 231.757 107.774H232.017C232.671 107.744 233.313 107.584 233.904 107.302C234.495 107.02 235.023 106.622 235.457 106.132C235.892 105.642 236.223 105.07 236.432 104.449C236.641 103.829 236.723 103.172 236.674 102.519C236.568 101.226 235.981 100.019 235.028 99.1374C234.075 98.2561 232.826 97.7652 231.528 97.7617Z" fill="white"/>
<path d="M240.806 102.312L237.624 102.475" stroke="#141414" stroke-width="1.68" stroke-miterlimit="10"/>
<path opacity="0.53" d="M250.976 104.948C252.57 102.691 251.989 99.5387 249.679 97.9066C247.368 96.2744 244.203 96.78 242.609 99.0362C241.014 101.293 241.595 104.445 243.906 106.078C246.217 107.71 249.382 107.204 250.976 104.948Z" fill="white"/>
<path opacity="0.53" d="M235.819 105.713C237.413 103.457 236.832 100.305 234.522 98.6724C232.211 97.0398 229.046 97.5458 227.452 99.802C225.858 102.059 226.439 105.211 228.749 106.843C231.06 108.476 234.225 107.969 235.819 105.713Z" fill="white"/>
<path d="M243.725 120.652L250.791 137.44C250.791 137.44 264.424 141.107 267.738 128.208" stroke="#141414" stroke-width="1.68" stroke-miterlimit="10"/>
<path d="M109.646 207.656C114.983 205.973 117.777 199.747 115.886 193.75C113.995 187.753 108.135 184.255 102.799 185.938C97.4618 187.621 94.6682 193.846 96.5592 199.844C98.4498 205.841 104.309 209.338 109.646 207.656Z" fill="#F0F0FF"/>
<path d="M241.839 241.659C241.688 227.995 239.278 214.495 238.168 208.984" stroke="#141414" stroke-width="1.68" stroke-miterlimit="10"/>
</svg>
