<svg width="24" height="24" viewBox="0 0 24 24" fill="none" xmlns="http://www.w3.org/2000/svg">
<path d="M5.75031 16.2503V10.2502C5.75031 10.0377 5.82221 9.85958 5.96603 9.71583C6.10985 9.5721 6.28805 9.50023 6.50063 9.50023C6.71322 9.50023 6.89131 9.5721 7.03491 9.71583C7.17849 9.85958 7.25028 10.0377 7.25028 10.2502V16.2503C7.25028 16.4628 7.17837 16.6409 7.03456 16.7846C6.89074 16.9284 6.71254 17.0003 6.49996 17.0003C6.28737 17.0003 6.10928 16.9284 5.96568 16.7846C5.8221 16.6409 5.75031 16.4628 5.75031 16.2503ZM11.2503 16.2503V10.2502C11.2503 10.0377 11.3222 9.85958 11.466 9.71583C11.6098 9.5721 11.788 9.50023 12.0006 9.50023C12.2132 9.50023 12.3913 9.5721 12.5349 9.71583C12.6784 9.85958 12.7502 10.0377 12.7502 10.2502V16.2503C12.7502 16.4628 12.6783 16.6409 12.5345 16.7846C12.3907 16.9284 12.2125 17.0003 11.9999 17.0003C11.7873 17.0003 11.6092 16.9284 11.4657 16.7846C11.3221 16.6409 11.2503 16.4628 11.2503 16.2503ZM3.51953 20.5002C3.30703 20.5002 3.12891 20.4283 2.98516 20.2845C2.84141 20.1407 2.76953 19.9625 2.76953 19.7499C2.76953 19.5373 2.84141 19.3592 2.98516 19.2156C3.12891 19.072 3.30703 19.0003 3.51953 19.0003H20.481C20.6935 19.0003 20.8716 19.0722 21.0154 19.216C21.1591 19.3598 21.231 19.538 21.231 19.7506C21.231 19.9632 21.1591 20.1412 21.0154 20.2848C20.8716 20.4284 20.6935 20.5002 20.481 20.5002H3.51953ZM16.7502 16.2503V10.2502C16.7502 10.0377 16.8221 9.85958 16.966 9.71583C17.1098 9.5721 17.288 9.50023 17.5006 9.50023C17.7131 9.50023 17.8912 9.5721 18.0348 9.71583C18.1784 9.85958 18.2502 10.0377 18.2502 10.2502V16.2503C18.2502 16.4628 18.1783 16.6409 18.0345 16.7846C17.8907 16.9284 17.7125 17.0003 17.4999 17.0003C17.2873 17.0003 17.1092 16.9284 16.9656 16.7846C16.822 16.6409 16.7502 16.4628 16.7502 16.2503ZM20.5195 7.50023H3.40991C3.23202 7.50023 3.08082 7.43809 2.95631 7.31381C2.83179 7.18954 2.76953 7.03864 2.76953 6.86111V6.47053C2.76953 6.34035 2.80215 6.22812 2.86738 6.13386C2.9326 6.03961 3.01857 5.96302 3.12531 5.90411L11.206 1.95028C11.4557 1.82978 11.72 1.76953 11.999 1.76953C12.278 1.76953 12.5432 1.82978 12.7945 1.95028L20.8348 5.87911C20.9605 5.94321 21.0579 6.03295 21.1271 6.14833C21.1964 6.26371 21.231 6.38766 21.231 6.52016V6.79116C21.231 6.99592 21.164 7.16529 21.03 7.29926C20.896 7.43324 20.7259 7.50023 20.5195 7.50023ZM6.31563 6.00026H17.6849L12.1349 3.30796C12.09 3.28872 12.0451 3.27911 12.0003 3.27911C11.9554 3.27911 11.9105 3.28872 11.8656 3.30796L6.31563 6.00026Z" fill="#8C8C8C"/>
</svg>
