<svg width="14" height="14" viewBox="0 0 14 14" fill="none" xmlns="http://www.w3.org/2000/svg">
<g clip-path="url(#clip0_2491_38511)">
<path fill-rule="evenodd" clip-rule="evenodd" d="M7.73151 4.36698C7.7045 4.11037 7.89343 3.88074 8.1535 3.85409L10.5089 3.61273L10.2644 1.29332C10.2373 1.03671 10.4262 0.807054 10.6863 0.78036C10.9463 0.753666 11.1791 0.940047 11.2061 1.19665L11.4997 3.98077C11.5127 4.10401 11.4755 4.2273 11.3964 4.3235C11.3172 4.4197 11.2026 4.48094 11.0777 4.49374L8.25131 4.78336C7.99124 4.81001 7.75851 4.62359 7.73151 4.36698Z" fill="#505050"/>
<path fill-rule="evenodd" clip-rule="evenodd" d="M9.95934 3.76408C10.1318 3.95643 10.4295 3.9754 10.6257 3.80608C10.8224 3.6362 10.8424 3.34108 10.6702 3.14692L10.3139 3.45453C10.6702 3.14692 10.6698 3.14647 10.6698 3.14647L10.6694 3.14598L10.6684 3.14487L10.6659 3.14214L10.6591 3.13469C10.6537 3.12885 10.6466 3.1213 10.6379 3.11219C10.6203 3.09395 10.596 3.06943 10.5649 3.0398C10.5026 2.98058 10.4129 2.90073 10.2957 2.80985C10.0615 2.62825 9.71556 2.40132 9.25764 2.20768C8.33405 1.81712 6.97962 1.57302 5.21282 2.0711C4.96142 2.14198 4.81584 2.40053 4.88767 2.64859C4.9595 2.89666 5.22154 3.0403 5.47295 2.96942C7.02016 2.53324 8.15123 2.75627 8.88465 3.06641C9.25523 3.22312 9.53072 3.40494 9.71072 3.54448C9.80063 3.61419 9.86629 3.67302 9.9076 3.71233C9.92824 3.73197 9.94275 3.74668 9.9511 3.75536C9.95528 3.7597 9.95791 3.76253 9.95899 3.76371" fill="#505050"/>
<path fill-rule="evenodd" clip-rule="evenodd" d="M12.0527 12.2086C11.8592 12.3821 11.5598 12.3681 11.3839 12.1772L1.91528 1.90022C1.7394 1.70933 1.75366 1.41389 1.94713 1.24034C2.1406 1.0668 2.44002 1.08087 2.6159 1.27177L12.0845 11.5487C12.2604 11.7396 12.2461 12.035 12.0527 12.2086Z" fill="#505050"/>
<path fill-rule="evenodd" clip-rule="evenodd" d="M1.95105 6.25565C1.69313 6.21323 1.5189 5.97255 1.56189 5.71807L2.02888 5.79487C1.56189 5.71807 1.56189 5.71807 1.56189 5.71807L1.56203 5.71724L1.5622 5.71628L1.5626 5.71396L1.56371 5.70779C1.56459 5.70299 1.56574 5.69685 1.56722 5.68941C1.57016 5.67454 1.57435 5.65448 1.58003 5.62969C1.59139 5.58014 1.60875 5.51154 1.63405 5.42761C1.68458 5.25999 1.76728 5.02965 1.89819 4.7671C2.16004 4.24189 2.61812 3.58164 3.40097 3.04327C3.61548 2.89575 3.91057 2.94774 4.06008 3.1594C4.20958 3.37105 4.15689 3.66222 3.94238 3.80974C3.31915 4.23834 2.95583 4.76226 2.7478 5.1795C2.64377 5.38817 2.57941 5.56861 2.54161 5.69398C2.52275 5.75653 2.51063 5.80497 2.50355 5.83584C2.50002 5.85126 2.49775 5.86225 2.49654 5.86838L2.4955 5.8738C2.45151 6.12711 2.20823 6.29794 1.95105 6.25565Z" fill="#505050"/>
<path fill-rule="evenodd" clip-rule="evenodd" d="M10.1869 10.527C10.0195 10.3288 10.0467 10.0343 10.2475 9.86911C10.8952 9.33658 11.2044 8.81719 11.3538 8.44871C11.4291 8.26306 11.465 8.11261 11.4821 8.01409C11.4907 7.96482 11.4945 7.92858 11.4962 7.90751C11.4971 7.89698 11.4974 7.89026 11.4975 7.88763C11.4975 7.88631 11.4975 7.88679 11.4975 7.88679L11.4975 7.88874L11.4975 7.89031L11.4975 7.89126L11.4975 7.89177C11.4978 7.63402 11.7096 7.42517 11.9709 7.42517C12.2324 7.42517 12.4443 7.63431 12.4443 7.8923L11.9709 7.8923C12.4443 7.8923 12.4443 7.89286 12.4443 7.89286L12.4443 7.89345L12.4443 7.89471L12.4443 7.89756L12.4442 7.90458C12.4441 7.90984 12.4439 7.91625 12.4436 7.92377C12.443 7.93881 12.442 7.95833 12.4401 7.98201C12.4362 8.02937 12.429 8.09349 12.4153 8.17195C12.3881 8.3289 12.3352 8.54339 12.2329 8.79568C12.0272 9.30307 11.6263 9.95152 10.8537 10.5868C10.6528 10.752 10.3543 10.7252 10.1869 10.527Z" fill="#505050"/>
<path fill-rule="evenodd" clip-rule="evenodd" d="M3.58254 13.206C3.33018 13.2735 3.07013 13.1264 3.00171 12.8774L2.25842 10.1727C2.22555 10.0531 2.2422 9.92551 2.30469 9.81801C2.36719 9.71052 2.47042 9.63193 2.59165 9.59955L5.33754 8.86615C5.58993 8.79874 5.84991 8.94597 5.91823 9.195C5.98655 9.44403 5.83733 9.70055 5.58494 9.76796L3.29623 10.3793L3.91557 12.6329C3.98399 12.8819 3.83489 13.1385 3.58254 13.206Z" fill="#505050"/>
<path fill-rule="evenodd" clip-rule="evenodd" d="M5.34902 11.051C6.31704 11.4379 7.58697 11.6391 8.91753 10.9785C9.1511 10.8626 9.43571 10.9554 9.55324 11.1858C9.67076 11.4163 9.57669 11.6971 9.34312 11.8131C7.69107 12.6333 6.12043 12.3674 4.99352 11.9169C4.43039 11.6919 3.96945 11.418 3.64917 11.2007C3.48856 11.0917 3.36203 10.9961 3.27433 10.9265C3.23045 10.8917 3.19619 10.8633 3.17214 10.843C3.16012 10.8328 3.15064 10.8247 3.14377 10.8187L3.13545 10.8114L3.13278 10.809L3.13181 10.8082L3.13143 10.8078C3.13143 10.8078 3.1311 10.8075 3.44917 10.4615L3.13143 10.8078C2.93776 10.6345 2.92283 10.3388 3.0985 10.1477C3.27396 9.95682 3.57288 9.94223 3.76657 10.1149L3.76697 10.1153L3.77022 10.1181C3.77375 10.1212 3.77979 10.1264 3.78826 10.1336C3.80519 10.1479 3.83182 10.17 3.86756 10.1983C3.93909 10.2551 4.04669 10.3365 4.18567 10.4308C4.46457 10.6201 4.86469 10.8574 5.34902 11.051Z" fill="#505050"/>
</g>
<defs>
<clipPath id="clip0_2491_38511">
<rect width="10.8889" height="12.4444" fill="white" transform="translate(12.4443 13.2222) rotate(180)"/>
</clipPath>
</defs>
</svg>
