<svg width="14" height="14" viewBox="0 0 14 14" fill="none" xmlns="http://www.w3.org/2000/svg">
<path d="M6.05379 8.4306L4.50506 6.88189C4.41276 6.78958 4.29674 6.74236 4.15699 6.74022C4.01725 6.73808 3.89909 6.7853 3.80251 6.88189C3.70593 6.97847 3.65764 7.09556 3.65764 7.23316C3.65764 7.37076 3.70593 7.48784 3.80251 7.58442L5.63199 9.41391C5.7525 9.53442 5.8931 9.59467 6.05379 9.59467C6.21447 9.59467 6.35507 9.53442 6.47558 9.41391L10.1845 5.70494C10.2769 5.61264 10.3241 5.49662 10.3262 5.35687C10.3284 5.21713 10.2811 5.09897 10.1845 5.00239C10.088 4.90581 9.97088 4.85752 9.83328 4.85752C9.69568 4.85752 9.57859 4.90581 9.48201 5.00239L6.05379 8.4306ZM7.00106 13.3331C6.1251 13.3331 5.30175 13.1669 4.53099 12.8345C3.76023 12.502 3.08977 12.0509 2.51963 11.481C1.94947 10.9111 1.4981 10.2409 1.16551 9.47049C0.832921 8.70008 0.666626 7.87689 0.666626 7.00094C0.666626 6.12498 0.832848 5.30163 1.16529 4.53087C1.49774 3.7601 1.9489 3.08965 2.51879 2.51951C3.08869 1.94935 3.75885 1.49798 4.52928 1.16539C5.29969 0.832799 6.12287 0.666504 6.99883 0.666504C7.87478 0.666504 8.69814 0.832727 9.46889 1.16517C10.2397 1.49762 10.9101 1.94878 11.4803 2.51867C12.0504 3.08857 12.5018 3.75873 12.8344 4.52915C13.167 5.29957 13.3333 6.12275 13.3333 6.9987C13.3333 7.87466 13.167 8.69802 12.8346 9.46877C12.5021 10.2395 12.051 10.91 11.4811 11.4801C10.9112 12.0503 10.241 12.5017 9.47061 12.8343C8.7002 13.1668 7.87702 13.3331 7.00106 13.3331ZM6.99994 12.3332C8.48883 12.3332 9.74994 11.8165 10.7833 10.7832C11.8166 9.74982 12.3333 8.48871 12.3333 6.99982C12.3333 5.51093 11.8166 4.24982 10.7833 3.21649C9.74994 2.18315 8.48883 1.66649 6.99994 1.66649C5.51105 1.66649 4.24994 2.18315 3.21661 3.21649C2.18328 4.24982 1.66661 5.51093 1.66661 6.99982C1.66661 8.48871 2.18328 9.74982 3.21661 10.7832C4.24994 11.8165 5.51105 12.3332 6.99994 12.3332Z" fill="#73D13D"/>
</svg>
