<svg width="16" height="16" viewBox="0 0 16 16" fill="none" xmlns="http://www.w3.org/2000/svg">
<mask id="mask0_2290_47183" style="mask-type:alpha" maskUnits="userSpaceOnUse" x="0" y="0" width="16" height="16">
<rect width="16" height="16" fill="#D9D9D9"/>
</mask>
<g mask="url(#mask0_2290_47183)">
<path d="M8.00007 14.3327C7.12395 14.3327 6.30063 14.1664 5.53008 13.834C4.75953 13.5015 4.08925 13.0504 3.51925 12.4805C2.94925 11.9106 2.498 11.2404 2.1655 10.47C1.833 9.69959 1.66675 8.8764 1.66675 8.00045C1.66675 7.12449 1.83297 6.30114 2.16541 5.53038C2.49786 4.75962 2.94903 4.08916 3.51892 3.51902C4.08882 2.94886 4.75898 2.49749 5.5294 2.1649C6.29981 1.83231 7.12299 1.66602 7.99895 1.66602C8.87491 1.66602 9.69826 1.83227 10.469 2.16477C11.2398 2.49727 11.9102 2.94852 12.4804 3.51852C13.0505 4.08852 13.5019 4.75879 13.8345 5.52935C14.1671 6.29989 14.3334 7.12322 14.3334 7.99933C14.3334 8.29933 14.3146 8.59378 14.277 8.88267C14.2394 9.17156 14.1795 9.45489 14.0975 9.73267C13.9761 9.60618 13.8394 9.49785 13.6872 9.40768C13.5351 9.31751 13.3689 9.25447 13.1885 9.21858C13.239 9.02199 13.2757 8.82263 13.2988 8.6205C13.3219 8.41835 13.3334 8.2113 13.3334 7.99933C13.3334 6.51044 12.8167 5.24933 11.7834 4.216C10.7501 3.18267 9.48896 2.666 8.00007 2.666C6.51118 2.666 5.25007 3.18267 4.21673 4.216C3.1834 5.24933 2.66673 6.51044 2.66673 7.99933C2.66673 9.48822 3.1834 10.7493 4.21673 11.7827C5.25007 12.816 6.51118 13.3327 8.00007 13.3327C8.58383 13.3327 9.13932 13.2448 9.66652 13.0692C10.1937 12.8935 10.6784 12.6476 11.1206 12.3314C11.224 12.469 11.3452 12.5929 11.484 12.7032C11.6229 12.8134 11.7736 12.901 11.936 12.966C11.3949 13.3959 10.7921 13.7311 10.1274 13.9717C9.46281 14.2123 8.75368 14.3327 8.00007 14.3327ZM12.7376 11.8327C12.551 11.8327 12.3932 11.7682 12.2642 11.6394C12.1351 11.5106 12.0706 11.3529 12.0706 11.1664C12.0706 10.9798 12.135 10.822 12.2638 10.6929C12.3926 10.5639 12.5503 10.4993 12.7369 10.4993C12.9234 10.4993 13.0812 10.5638 13.2103 10.6926C13.3394 10.8214 13.4039 10.9791 13.4039 11.1656C13.4039 11.3522 13.3395 11.51 13.2107 11.6391C13.0819 11.7681 12.9242 11.8327 12.7376 11.8327ZM10.3155 11.0173L7.50008 8.20177V4.666H8.50005V7.79677L11.018 10.3147L10.3155 11.0173Z" fill="#FF8D00"/>
</g>
</svg>
