<svg width="48" height="48" viewBox="0 0 48 48" fill="none" xmlns="http://www.w3.org/2000/svg">
<path d="M42.6206 13.7583L34.2431 5.37892C33.9646 5.10027 33.6338 4.87923 33.2698 4.72843C32.9058 4.57762 32.5156 4.5 32.1216 4.5C31.7276 4.5 31.3374 4.57762 30.9734 4.72843C30.6093 4.87923 30.2786 5.10027 30 5.37892L6.87939 28.5014C6.5996 28.779 6.37778 29.1094 6.22681 29.4735C6.07585 29.8375 5.99876 30.2279 6.00002 30.622V39.0014C6.00002 39.7971 6.31609 40.5601 6.87869 41.1227C7.4413 41.6853 8.20437 42.0014 9.00002 42.0014H17.3794C17.7735 42.0027 18.1639 41.9256 18.528 41.7746C18.892 41.6237 19.2224 41.4018 19.5 41.122L42.6206 18.0014C42.8993 17.7228 43.1203 17.3921 43.2711 17.0281C43.4219 16.664 43.4996 16.2739 43.4996 15.8799C43.4996 15.4858 43.4219 15.0957 43.2711 14.7316C43.1203 14.3676 42.8993 14.0369 42.6206 13.7583ZM17.3794 39.0014H9.00002V30.622L25.5 14.122L33.8794 22.5014L17.3794 39.0014ZM36 20.3789L27.6206 12.0014L32.1206 7.50142L40.5 15.8789L36 20.3789Z" fill="#D1D1D1"/>
</svg>
