<svg width="15" height="14" viewBox="0 0 15 14" fill="none" xmlns="http://www.w3.org/2000/svg">
<path d="M12.3505 4.50297L9.28805 1.44047C9.24739 1.39985 9.19912 1.36765 9.14601 1.34569C9.0929 1.32373 9.03599 1.31245 8.97852 1.3125H3.72852C3.49645 1.3125 3.27389 1.40469 3.1098 1.56878C2.9457 1.73288 2.85352 1.95544 2.85352 2.1875V11.8125C2.85352 12.0446 2.9457 12.2671 3.1098 12.4312C3.27389 12.5953 3.49645 12.6875 3.72852 12.6875H11.6035C11.8356 12.6875 12.0581 12.5953 12.2222 12.4312C12.3863 12.2671 12.4785 12.0446 12.4785 11.8125V4.8125C12.4786 4.75503 12.4673 4.69811 12.4453 4.645C12.4234 4.59189 12.3912 4.54363 12.3505 4.50297ZM9.41602 2.80602L10.985 4.375H9.41602V2.80602ZM11.6035 11.8125H3.72852V2.1875H8.54102V4.8125C8.54102 4.92853 8.58711 5.03981 8.66916 5.12186C8.7512 5.20391 8.86248 5.25 8.97852 5.25H11.6035V11.8125ZM9.85352 7.4375C9.85352 7.55353 9.80742 7.66481 9.72538 7.74686C9.64333 7.82891 9.53205 7.875 9.41602 7.875H5.91602C5.79998 7.875 5.6887 7.82891 5.60666 7.74686C5.52461 7.66481 5.47852 7.55353 5.47852 7.4375C5.47852 7.32147 5.52461 7.21019 5.60666 7.12814C5.6887 7.04609 5.79998 7 5.91602 7H9.41602C9.53205 7 9.64333 7.04609 9.72538 7.12814C9.80742 7.21019 9.85352 7.32147 9.85352 7.4375ZM9.85352 9.1875C9.85352 9.30353 9.80742 9.41481 9.72538 9.49686C9.64333 9.57891 9.53205 9.625 9.41602 9.625H5.91602C5.79998 9.625 5.6887 9.57891 5.60666 9.49686C5.52461 9.41481 5.47852 9.30353 5.47852 9.1875C5.47852 9.07147 5.52461 8.96019 5.60666 8.87814C5.6887 8.79609 5.79998 8.75 5.91602 8.75H9.41602C9.53205 8.75 9.64333 8.79609 9.72538 8.87814C9.80742 8.96019 9.85352 9.07147 9.85352 9.1875Z" fill="#8C8C8C"/>
</svg>
