<svg width="18" height="18" viewBox="0 0 18 18" fill="none" xmlns="http://www.w3.org/2000/svg">
<path d="M5.0625 4.21875C5.0625 4.38563 5.01302 4.54876 4.9203 4.68751C4.82759 4.82627 4.69581 4.93441 4.54164 4.99827C4.38746 5.06214 4.21781 5.07884 4.05414 5.04629C3.89047 5.01373 3.74013 4.93337 3.62213 4.81537C3.50413 4.69737 3.42377 4.54703 3.39121 4.38336C3.35866 4.21969 3.37537 4.05004 3.43923 3.89586C3.50309 3.74169 3.61123 3.60991 3.74999 3.5172C3.88874 3.42449 4.05187 3.375 4.21875 3.375C4.44253 3.375 4.65714 3.4639 4.81537 3.62213C4.97361 3.78036 5.0625 3.99497 5.0625 4.21875ZM9 3.375C8.83312 3.375 8.66999 3.42449 8.53124 3.5172C8.39249 3.60991 8.28434 3.74169 8.22048 3.89586C8.15662 4.05004 8.13991 4.21969 8.17246 4.38336C8.20502 4.54703 8.28538 4.69737 8.40338 4.81537C8.52138 4.93337 8.67172 5.01373 8.83539 5.04629C8.99906 5.07884 9.16871 5.06214 9.32289 4.99827C9.47707 4.93441 9.60884 4.82627 9.70155 4.68751C9.79427 4.54876 9.84375 4.38563 9.84375 4.21875C9.84375 3.99497 9.75486 3.78036 9.59662 3.62213C9.43839 3.4639 9.22378 3.375 9 3.375ZM13.7813 5.0625C13.9481 5.0625 14.1113 5.01302 14.25 4.9203C14.3888 4.82759 14.4969 4.69581 14.5608 4.54164C14.6246 4.38746 14.6413 4.21781 14.6088 4.05414C14.5762 3.89047 14.4959 3.74013 14.3779 3.62213C14.2599 3.50413 14.1095 3.42377 13.9459 3.39121C13.7822 3.35866 13.6125 3.37537 13.4584 3.43923C13.3042 3.50309 13.1724 3.61123 13.0797 3.74999C12.987 3.88874 12.9375 4.05187 12.9375 4.21875C12.9375 4.44253 13.0264 4.65714 13.1846 4.81537C13.3429 4.97361 13.5575 5.0625 13.7813 5.0625ZM4.21875 8.15625C4.05187 8.15625 3.88874 8.20574 3.74999 8.29845C3.61123 8.39116 3.50309 8.52294 3.43923 8.67711C3.37537 8.83129 3.35866 9.00094 3.39121 9.16461C3.42377 9.32828 3.50413 9.47862 3.62213 9.59662C3.74013 9.71462 3.89047 9.79498 4.05414 9.82754C4.21781 9.8601 4.38746 9.84339 4.54164 9.77952C4.69581 9.71566 4.82759 9.60752 4.9203 9.46876C5.01302 9.33001 5.0625 9.16688 5.0625 9C5.0625 8.77622 4.97361 8.56161 4.81537 8.40338C4.65714 8.24515 4.44253 8.15625 4.21875 8.15625ZM9 8.15625C8.83312 8.15625 8.66999 8.20574 8.53124 8.29845C8.39249 8.39116 8.28434 8.52294 8.22048 8.67711C8.15662 8.83129 8.13991 9.00094 8.17246 9.16461C8.20502 9.32828 8.28538 9.47862 8.40338 9.59662C8.52138 9.71462 8.67172 9.79498 8.83539 9.82754C8.99906 9.8601 9.16871 9.84339 9.32289 9.77952C9.47707 9.71566 9.60884 9.60752 9.70155 9.46876C9.79427 9.33001 9.84375 9.16688 9.84375 9C9.84375 8.77622 9.75486 8.56161 9.59662 8.40338C9.43839 8.24515 9.22378 8.15625 9 8.15625ZM13.7813 8.15625C13.6144 8.15625 13.4512 8.20574 13.3125 8.29845C13.1737 8.39116 13.0656 8.52294 13.0017 8.67711C12.9379 8.83129 12.9212 9.00094 12.9537 9.16461C12.9863 9.32828 13.0666 9.47862 13.1846 9.59662C13.3026 9.71462 13.453 9.79498 13.6166 9.82754C13.7803 9.8601 13.95 9.84339 14.1041 9.77952C14.2583 9.71566 14.3901 9.60752 14.4828 9.46876C14.5755 9.33001 14.625 9.16688 14.625 9C14.625 8.77622 14.5361 8.56161 14.3779 8.40338C14.2196 8.24515 14.005 8.15625 13.7813 8.15625ZM4.21875 12.9375C4.05187 12.9375 3.88874 12.987 3.74999 13.0797C3.61123 13.1724 3.50309 13.3042 3.43923 13.4584C3.37537 13.6125 3.35866 13.7822 3.39121 13.9459C3.42377 14.1095 3.50413 14.2599 3.62213 14.3779C3.74013 14.4959 3.89047 14.5762 4.05414 14.6088C4.21781 14.6413 4.38746 14.6246 4.54164 14.5608C4.69581 14.4969 4.82759 14.3888 4.9203 14.25C5.01302 14.1113 5.0625 13.9481 5.0625 13.7813C5.0625 13.5575 4.97361 13.3429 4.81537 13.1846C4.65714 13.0264 4.44253 12.9375 4.21875 12.9375ZM9 12.9375C8.83312 12.9375 8.66999 12.987 8.53124 13.0797C8.39249 13.1724 8.28434 13.3042 8.22048 13.4584C8.15662 13.6125 8.13991 13.7822 8.17246 13.9459C8.20502 14.1095 8.28538 14.2599 8.40338 14.3779C8.52138 14.4959 8.67172 14.5762 8.83539 14.6088C8.99906 14.6413 9.16871 14.6246 9.32289 14.5608C9.47707 14.4969 9.60884 14.3888 9.70155 14.25C9.79427 14.1113 9.84375 13.9481 9.84375 13.7813C9.84375 13.5575 9.75486 13.3429 9.59662 13.1846C9.43839 13.0264 9.22378 12.9375 9 12.9375ZM13.7813 12.9375C13.6144 12.9375 13.4512 12.987 13.3125 13.0797C13.1737 13.1724 13.0656 13.3042 13.0017 13.4584C12.9379 13.6125 12.9212 13.7822 12.9537 13.9459C12.9863 14.1095 13.0666 14.2599 13.1846 14.3779C13.3026 14.4959 13.453 14.5762 13.6166 14.6088C13.7803 14.6413 13.95 14.6246 14.1041 14.5608C14.2583 14.4969 14.3901 14.3888 14.4828 14.25C14.5755 14.1113 14.625 13.9481 14.625 13.7813C14.625 13.5575 14.5361 13.3429 14.3779 13.1846C14.2196 13.0264 14.005 12.9375 13.7813 12.9375Z" fill="#8C8C8C"/>
</svg>
