<svg width="18" height="18" viewBox="0 0 18 18" fill="none" xmlns="http://www.w3.org/2000/svg">
<mask id="mask0_2035_61949" style="mask-type:alpha" maskUnits="userSpaceOnUse" x="0" y="0" width="18" height="18">
<rect width="18" height="18" fill="#D9D9D9"/>
</mask>
<g mask="url(#mask0_2035_61949)">
<path d="M9.13992 12.6908L15.3707 6.46005C15.4043 6.42638 15.4212 6.38551 15.4212 6.33744C15.4212 6.28936 15.4043 6.2485 15.3707 6.21483L14.6409 5.48505C14.6072 5.45138 14.5664 5.43455 14.5183 5.43455C14.4702 5.43455 14.4293 5.45138 14.3957 5.48505L8.16492 11.7158L9.13992 12.6908ZM2.20675 11.4634C2.20675 11.8692 2.34617 12.1865 2.62502 12.4153C2.90387 12.6442 3.35003 12.7971 3.96349 12.874C4.11542 12.8942 4.23753 12.9632 4.32983 13.081C4.42213 13.1987 4.46444 13.3336 4.45675 13.4855C4.44906 13.6451 4.39209 13.7769 4.28584 13.8807C4.17959 13.9845 4.05291 14.0264 3.9058 14.0062C2.97024 13.8908 2.26567 13.6206 1.79211 13.1956C1.31856 12.7706 1.08179 12.1932 1.08179 11.4634C1.08179 10.7038 1.40053 10.0877 2.03802 9.61509C2.67552 9.1425 3.56157 8.85621 4.69619 8.75621C5.24139 8.70908 5.65029 8.61052 5.92289 8.46052C6.19549 8.31052 6.33179 8.10283 6.33179 7.83744C6.33179 7.50955 6.18972 7.25186 5.90558 7.06436C5.62144 6.87686 5.15533 6.73455 4.50724 6.63742C4.35533 6.61723 4.23082 6.54753 4.13371 6.4283C4.03659 6.30906 3.99813 6.17349 4.01832 6.02158C4.03851 5.86196 4.10797 5.73216 4.22672 5.63216C4.34547 5.53216 4.48321 5.49466 4.63994 5.51966C5.5957 5.66486 6.30411 5.92736 6.76517 6.30716C7.22622 6.68697 7.45675 7.19706 7.45675 7.83744C7.45675 8.43263 7.22814 8.9045 6.77093 9.25305C6.31373 9.60161 5.65004 9.81098 4.77985 9.88117C3.92215 9.9533 3.27887 10.1206 2.85002 10.3831C2.42117 10.6456 2.20675 11.0057 2.20675 11.4634ZM9.31587 14.1071L6.7486 11.5399L13.7524 4.54323C13.9736 4.32208 14.232 4.21271 14.5277 4.21513C14.8233 4.21753 15.0817 4.3269 15.3029 4.54323L16.3125 5.55283C16.5336 5.77398 16.6442 6.03359 16.6442 6.33167C16.6442 6.62974 16.5336 6.88935 16.3125 7.1105L9.31587 14.1071ZM6.81061 14.6249C6.64138 14.6653 6.49234 14.6211 6.36349 14.4922C6.23466 14.3634 6.19043 14.2143 6.23082 14.0451L6.7486 11.5399L9.31587 14.1071L6.81061 14.6249Z" fill="#D1D1D1"/>
</g>
</svg>
