<svg width="18" height="18" viewBox="0 0 18 18" fill="none" xmlns="http://www.w3.org/2000/svg">
<path d="M4.83346 9.03398C4.83346 9.22885 4.84671 9.42309 4.87321 9.61668C4.89971 9.81026 4.94501 10.0011 5.00911 10.1891C5.05185 10.331 5.04736 10.4667 4.99565 10.5962C4.94393 10.7256 4.85612 10.8186 4.7322 10.875C4.60143 10.9382 4.4713 10.9434 4.34181 10.8904C4.21233 10.8374 4.12623 10.74 4.0835 10.5981C3.99461 10.3468 3.93072 10.0889 3.89183 9.82436C3.85294 9.55983 3.8335 9.29636 3.8335 9.03398C3.8335 7.5921 4.3352 6.36496 5.33861 5.35258C6.34204 4.34019 7.56255 3.83399 9.00015 3.83399H9.5207L8.63861 2.95191C8.54631 2.85961 8.49909 2.74359 8.49695 2.60384C8.49481 2.46411 8.54204 2.34595 8.63861 2.24938C8.73519 2.15279 8.85229 2.10449 8.9899 2.10449C9.1275 2.10449 9.24459 2.15279 9.34116 2.24938L11.004 3.91219C11.1245 4.0327 11.1847 4.1733 11.1847 4.33398C11.1847 4.49465 11.1245 4.63525 11.004 4.75576L9.34116 6.41858C9.24886 6.51089 9.13284 6.55811 8.9931 6.56024C8.85335 6.56239 8.73519 6.51516 8.63861 6.41858C8.54204 6.322 8.49375 6.20491 8.49375 6.06731C8.49375 5.92971 8.54204 5.81262 8.63861 5.71604L9.5207 4.83396H9.00015C7.84202 4.83396 6.85805 5.24165 6.04821 6.05704C5.23838 6.87243 4.83346 7.86474 4.83346 9.03398ZM13.1668 8.96731C13.1668 8.77243 13.1536 8.5782 13.1271 8.38461C13.1006 8.19102 13.0553 8.00021 12.9912 7.81218C12.9484 7.6703 12.9529 7.53461 13.0046 7.40513C13.0564 7.27565 13.1442 7.1827 13.2681 7.12629C13.3989 7.06305 13.5279 7.05792 13.6553 7.11091C13.7826 7.1639 13.8677 7.26133 13.9104 7.40321C13.9993 7.65449 14.0642 7.91239 14.1053 8.17693C14.1463 8.44146 14.1668 8.70492 14.1668 8.96731C14.1668 10.4092 13.6651 11.6363 12.6617 12.6487C11.6583 13.6611 10.4377 14.1673 9.00015 14.1673H8.4796L9.36168 15.0494C9.45398 15.1417 9.5012 15.2577 9.50335 15.3974C9.50548 15.5372 9.45826 15.6553 9.36168 15.7519C9.2651 15.8485 9.14801 15.8968 9.0104 15.8968C8.8728 15.8968 8.75571 15.8485 8.65913 15.7519L6.99631 14.0891C6.8758 13.9686 6.81555 13.828 6.81555 13.6673C6.81555 13.5066 6.8758 13.366 6.99631 13.2455L8.65913 11.5827C8.75143 11.4904 8.86745 11.4432 9.0072 11.441C9.14694 11.4389 9.2651 11.4861 9.36168 11.5827C9.45826 11.6793 9.50655 11.7964 9.50655 11.934C9.50655 12.0716 9.45826 12.1887 9.36168 12.2852L8.4796 13.1673H9.00015C10.1583 13.1673 11.1422 12.7596 11.9521 11.9442C12.7619 11.1289 13.1668 10.1365 13.1668 8.96731Z" fill="#6159FF"/>
<path d="M1 1L17 17" stroke="#6159FF"/>
</svg>
