<svg width="18" height="18" viewBox="0 0 18 18" fill="none" xmlns="http://www.w3.org/2000/svg">
<path d="M4.31273 12.1877V7.68765C4.31273 7.52828 4.36666 7.39469 4.47452 7.28687C4.58239 7.17907 4.71604 7.12517 4.87547 7.12517C5.03491 7.12517 5.16848 7.17907 5.27618 7.28687C5.38387 7.39469 5.43771 7.52828 5.43771 7.68765V12.1877C5.43771 12.3471 5.38378 12.4807 5.27592 12.5885C5.16806 12.6963 5.03441 12.7502 4.87497 12.7502C4.71553 12.7502 4.58196 12.6963 4.47426 12.5885C4.36657 12.4807 4.31273 12.3471 4.31273 12.1877ZM8.43771 12.1877V7.68765C8.43771 7.52828 8.49164 7.39469 8.59949 7.28687C8.70735 7.17907 8.841 7.12517 9.00044 7.12517C9.15989 7.12517 9.29346 7.17907 9.40114 7.28687C9.50883 7.39469 9.56267 7.52828 9.56267 7.68765V12.1877C9.56267 12.3471 9.50875 12.4807 9.4009 12.5885C9.29304 12.6963 9.15939 12.7502 8.99995 12.7502C8.8405 12.7502 8.70693 12.6963 8.59924 12.5885C8.49156 12.4807 8.43771 12.3471 8.43771 12.1877ZM2.63965 15.3752C2.48027 15.3752 2.34668 15.3212 2.23887 15.2134C2.13105 15.1055 2.07715 14.9719 2.07715 14.8124C2.07715 14.653 2.13105 14.5194 2.23887 14.4117C2.34668 14.304 2.48027 14.2502 2.63965 14.2502H15.3607C15.5201 14.2502 15.6537 14.3041 15.7615 14.412C15.8693 14.5198 15.9232 14.6535 15.9232 14.8129C15.9232 14.9724 15.8693 15.1059 15.7615 15.2136C15.6537 15.3213 15.5201 15.3752 15.3607 15.3752H2.63965ZM12.5627 12.1877V7.68765C12.5627 7.52828 12.6166 7.39469 12.7245 7.28687C12.8323 7.17907 12.966 7.12517 13.1254 7.12517C13.2849 7.12517 13.4184 7.17907 13.5261 7.28687C13.6338 7.39469 13.6877 7.52828 13.6877 7.68765V12.1877C13.6877 12.3471 13.6337 12.4807 13.5259 12.5885C13.418 12.6963 13.2843 12.7502 13.1249 12.7502C12.9655 12.7502 12.8319 12.6963 12.7242 12.5885C12.6165 12.4807 12.5627 12.3471 12.5627 12.1877ZM15.3896 5.62517H2.55743C2.42402 5.62517 2.31062 5.57857 2.21723 5.48535C2.12384 5.39215 2.07715 5.27898 2.07715 5.14583V4.8529C2.07715 4.75526 2.10161 4.67109 2.15054 4.60039C2.19945 4.5297 2.26393 4.47227 2.34398 4.42808L8.40452 1.46271C8.59176 1.37234 8.79001 1.32715 8.99927 1.32715C9.20854 1.32715 9.4074 1.37234 9.59586 1.46271L15.6261 4.40933C15.7203 4.4574 15.7934 4.52471 15.8454 4.61125C15.8973 4.69779 15.9232 4.79074 15.9232 4.89012V5.09337C15.9232 5.24694 15.873 5.37397 15.7725 5.47444C15.672 5.57493 15.5444 5.62517 15.3896 5.62517ZM4.73672 4.50019H13.2637L9.10116 2.48097C9.06751 2.46654 9.03386 2.45933 9.00019 2.45933C8.96653 2.45933 8.93287 2.46654 8.89922 2.48097L4.73672 4.50019Z" fill="#389E0D"/>
</svg>
