<svg width="20" height="20" viewBox="0 0 20 20" fill="none" xmlns="http://www.w3.org/2000/svg">
<g clip-path="url(#clip0_3090_86501)">
<path d="M15.0985 8.90895C15.1873 8.81918 15.2375 8.69598 15.2375 8.5704C15.2375 8.44575 15.1873 8.32301 15.0985 8.23465C14.9195 8.0561 14.6032 8.057 14.4256 8.23465C14.3368 8.32301 14.2852 8.44579 14.2852 8.5704C14.2852 8.69504 14.3368 8.81778 14.4256 8.90895C14.5139 8.99637 14.6367 9.04661 14.7613 9.04661C14.8859 9.04661 15.0101 8.99641 15.0985 8.90895Z" fill="#389E0D"/>
<path d="M18.5714 8.09512H17.6302C17.3959 7.51012 17.0731 6.95394 16.6676 6.43496V2.85703C16.6676 2.68914 16.5793 2.53336 16.4342 2.44781C16.29 2.36223 16.1105 2.35851 15.9631 2.43945L13.2301 3.93266C12.9925 3.84105 12.7493 3.75828 12.5 3.68664C12.2461 3.61316 11.9829 3.75918 11.9104 4.01168C11.8369 4.26418 11.9829 4.52832 12.2354 4.60133C12.5363 4.68828 12.8293 4.79246 13.1111 4.91148C13.2901 4.98684 13.4831 4.93891 13.6133 4.80824L15.7153 3.66008V6.43027C15.6679 6.58047 15.6957 6.74976 15.8022 6.87855C16.2733 7.4473 16.6249 8.06809 16.8486 8.72473C16.9141 8.91773 17.0955 9.04746 17.2992 9.04746H18.5715C18.8337 9.04746 19.0477 9.26137 19.0477 9.52363V12.3808C19.0477 12.643 18.8337 12.857 18.5715 12.857H16.876C16.7016 12.857 16.5412 12.9523 16.4575 13.1053C15.9575 14.0251 15.1735 14.8408 14.19 15.4648C14.0802 15.5346 14.0039 15.6462 13.9788 15.7736L13.4189 18.5712H11.4286V17.0818C11.4286 16.9464 11.371 16.8171 11.2705 16.727C11.1691 16.6368 11.0361 16.5939 10.9004 16.6084C10.0382 16.7037 9.12578 16.6684 8.19992 16.4596C8.05809 16.4275 7.91066 16.4619 7.79766 16.5521C7.68465 16.6423 7.6191 16.7795 7.6191 16.9241V18.5713H5.62832L4.89867 14.9227C4.87914 14.8255 4.82984 14.7366 4.75777 14.6687C3.53242 13.5187 2.85719 12.0293 2.85719 10.4761C2.85719 9.49809 3.11297 8.56293 3.61656 7.69656C3.7491 7.46918 3.67191 7.17758 3.44449 7.04551C3.21711 6.91297 2.92551 6.99062 2.79344 7.21758C2.29352 8.07652 2.01078 9.03027 1.93684 9.99988H1.42855C1.16629 9.99988 0.952383 9.78598 0.952383 9.52371V8.57133C0.952383 8.30812 0.739414 8.09516 0.476211 8.09516C0.213008 8.09516 0 8.30808 0 8.57133V9.52371C0 10.3115 0.64082 10.9523 1.42855 10.9523H1.92984C2.05027 12.5482 2.76734 14.0577 3.9941 15.2566L4.69445 18.7582C4.78328 19.2019 5.17621 19.5237 5.62871 19.5237H7.61902C8.14402 19.5237 8.57141 19.0968 8.57141 18.5713V17.5012C9.21734 17.6059 9.85953 17.6426 10.4762 17.6026V18.5713C10.4762 19.0968 10.903 19.5237 11.4286 19.5237H13.4189C13.8709 19.5237 14.2638 19.2019 14.3527 18.7582L14.8735 16.1569C15.8259 15.5189 16.6066 14.7143 17.1516 13.8094H18.5714C19.3591 13.8094 19.9999 13.1686 19.9999 12.3809V9.52371C20 8.73594 19.3592 8.09512 18.5714 8.09512Z" fill="#389E0D"/>
<path d="M5.59395 8.61135C5.67953 8.67459 5.77902 8.70482 5.87762 8.70482C6.02316 8.70482 6.16688 8.63834 6.26035 8.51229C7.11785 7.3567 8.61109 6.66658 10.2554 6.66658C10.4712 6.66658 10.6851 6.67865 10.8972 6.70377C11.1595 6.73725 11.3948 6.54705 11.425 6.28572C11.4552 6.02439 11.2683 5.78815 11.007 5.75791C10.8898 5.74397 10.7698 5.74443 10.6517 5.73697C10.8442 5.28029 10.9521 4.79154 10.9521 4.28561C10.9521 2.18506 9.24309 0.476074 7.14254 0.476074C5.04199 0.476074 3.33301 2.18506 3.33301 4.28561C3.33301 5.8281 4.26863 7.18506 5.64047 7.77381C5.59352 7.83193 5.54004 7.88494 5.49539 7.94494C5.33863 8.15611 5.38285 8.4542 5.59395 8.61135ZM4.28535 4.28564C4.28535 2.71014 5.56695 1.4285 7.1425 1.4285C8.71805 1.4285 9.99965 2.71014 9.99965 4.28564C9.99965 4.80787 9.8527 5.30779 9.58672 5.75002C8.37207 5.87139 7.25273 6.32061 6.37941 7.02885C5.15637 6.68939 4.28535 5.57424 4.28535 4.28564Z" fill="#389E0D"/>
</g>
<defs>
<clipPath id="clip0_3090_86501">
<rect width="20" height="20" fill="white"/>
</clipPath>
</defs>
</svg>
