<svg width="40" height="44" viewBox="0 0 40 44" fill="none" xmlns="http://www.w3.org/2000/svg">
<path d="M19.0664 12.4575C13.1504 12.7594 8.25437 17.5003 7.78313 23.4C7.64257 25.0461 7.84637 26.7034 8.38167 28.2664C8.91696 29.8293 9.77193 31.2636 10.8921 32.478C11.7181 33.3866 12.6818 34.1598 13.7481 34.7689C14.0263 34.9295 14.2891 35.1151 14.5335 35.3238C16.13 36.1298 17.893 36.5511 19.6814 36.5539C21.4701 36.5568 23.2343 36.141 24.8334 35.3401C25.066 35.1241 25.3243 34.9379 25.6025 34.7853C26.7125 34.1506 27.7156 33.345 28.5748 32.3985C28.5966 32.3677 28.6205 32.3383 28.6462 32.3107C30.205 30.5464 31.208 28.3611 31.5295 26.029C31.8513 23.6971 31.4771 21.3219 30.4543 19.2015C29.4314 17.0811 27.8051 15.31 25.7796 14.1103C23.7541 12.9106 21.4195 12.3355 19.0684 12.4575H19.0664ZM26.4716 31.1459C26.4489 31.1628 26.4304 31.1845 26.4165 31.2091C25.7506 31.9372 24.9748 32.5568 24.1174 33.0451C23.904 33.162 23.7065 33.3061 23.5299 33.4735C22.2969 34.0906 20.9368 34.4119 19.558 34.4119C18.1792 34.4119 16.8191 34.0906 15.5861 33.4735C15.3952 33.3105 15.1904 33.1645 14.9741 33.037C13.3264 32.0892 12.0123 30.6551 11.2118 28.9309C10.4115 27.2069 10.164 25.2774 10.5037 23.4072C10.8431 21.5369 11.7532 19.8176 13.1085 18.4849C14.4639 17.1523 16.1983 16.2715 18.0741 15.9636C19.9497 15.6558 21.8748 15.9357 23.5852 16.7651C25.2955 17.5946 26.7072 18.9328 27.6268 20.5963C28.5465 22.2599 28.929 24.1671 28.7217 26.0567C28.5146 27.9462 27.7278 29.7253 26.4695 31.15L26.4716 31.1459Z" fill="#FFF0A1"/>
<path d="M18.9513 14.014C13.7536 14.2769 9.45193 18.4059 9.0379 23.544C8.91441 24.9776 9.09346 26.421 9.56378 27.7823C10.0341 29.1434 10.7853 30.3926 11.7694 31.4502C12.4951 32.2415 13.3419 32.9149 14.2787 33.4454C14.5232 33.5852 14.754 33.7469 14.9688 33.9287C16.3714 34.6306 17.9204 34.9975 19.4917 35C21.0633 35.0025 22.6133 34.6404 24.0183 33.9429C24.2226 33.7547 24.4495 33.5925 24.694 33.4596C25.6692 32.9069 26.5505 32.2053 27.3054 31.3809C27.3246 31.3541 27.3456 31.3285 27.3682 31.3045C28.7377 29.7679 29.619 27.8647 29.9015 25.8336C30.1841 23.8027 29.8554 21.7341 28.9567 19.8875C28.0581 18.0408 26.6292 16.4983 24.8496 15.4534C23.07 14.4086 21.0188 13.9077 18.9531 14.014H18.9513Z" fill="#FFF0A1"/>
<path d="M24.8292 35.3405C24.3596 35.7664 23.9849 36.2864 23.7291 36.8668C23.4732 37.447 23.3421 38.0743 23.3441 38.7085V39.2552C23.3441 41.1647 21.961 42.8762 20.0801 43.068C19.5717 43.12 19.0583 43.0651 18.5723 42.9068C18.0866 42.7483 17.6394 42.49 17.2594 42.1483C16.8795 41.8066 16.5754 41.3893 16.3667 40.9229C16.1578 40.4566 16.0489 39.9517 16.047 39.4409V38.7085C16.046 38.0708 15.9114 37.4404 15.6521 36.858C15.3928 36.2754 15.0146 35.7536 14.5415 35.3262C16.138 36.1297 17.9004 36.5496 19.6878 36.552C21.4753 36.5545 23.2386 36.1395 24.8374 35.3405H24.8292Z" fill="#353642"/>
<path d="M24.8292 35.3405C24.3596 35.7664 23.9849 36.2864 23.7291 36.8668C23.4732 37.447 23.3421 38.0743 23.3441 38.7085V39.2552C23.3441 41.1647 21.961 42.8762 20.0801 43.068C19.5717 43.12 19.0583 43.0651 18.5723 42.9068C18.0866 42.7483 17.6394 42.49 17.2594 42.1483C16.8795 41.8066 16.5754 41.3893 16.3667 40.9229C16.1578 40.4566 16.0489 39.9517 16.047 39.4409V38.7085C16.046 38.0708 15.9114 37.4404 15.6521 36.858C15.3928 36.2754 15.0146 35.7536 14.5415 35.3262C16.138 36.1297 17.9004 36.5496 19.6878 36.552C21.4753 36.5545 23.2386 36.1395 24.8374 35.3405H24.8292Z" stroke="black" stroke-width="1.122" stroke-miterlimit="10"/>
<path d="M31.6409 24.3927C31.647 27.3115 30.5797 30.1308 28.6421 32.314C28.6178 32.3403 28.5954 32.3682 28.5748 32.3976C27.7141 33.3458 26.7088 34.152 25.5964 34.7865C25.3199 34.9409 25.0627 35.1271 24.8293 35.3413C23.2306 36.1406 21.4672 36.5553 19.6797 36.5529C17.8923 36.5505 16.1301 36.1306 14.5334 35.3271C14.2897 35.1151 14.0259 34.9272 13.746 34.7661C11.7756 33.6333 10.1684 31.9629 9.11254 29.9504C8.05643 27.9378 7.59539 25.6662 7.78307 23.4012C8.03155 20.3229 9.4622 17.4605 11.7749 15.414C14.0879 13.3675 17.1032 12.2961 20.1887 12.4244C23.2742 12.5525 26.1904 13.8705 28.3255 16.1017C30.4605 18.333 31.6486 21.3043 31.6409 24.3927Z" stroke="black" stroke-width="1.122" stroke-miterlimit="10"/>
<path d="M16.3142 36.5533L13.5766 27.4794L12.8911 24.909C12.8911 24.8317 12.9166 24.7566 12.9635 24.6952C13.0107 24.634 13.0766 24.59 13.1512 24.57C13.2259 24.55 13.305 24.5551 13.3764 24.5847C13.4478 24.6142 13.5074 24.6667 13.546 24.7336C14.158 25.8148 15.1249 27.1714 16.0878 27.1367C17.6851 27.0796 16.3734 22.2305 15.0678 22.7385C13.7622 23.2464 16.2653 26.4513 18.8438 26.8511C21.4224 27.2509 20.7166 22.9159 18.8438 22.7446C16.9711 22.5732 18.2624 26.2248 21.6284 26.8511C24.9944 27.4774 24.3661 23.7707 23.4542 23.0302C22.5424 22.2897 22.8259 26.5655 24.9394 27.2509C25.6085 27.4692 26.1409 27.0021 26.402 26.4207C26.553 26.082 26.4755 24.3684 26.1654 24.8968C25.533 25.98 25.4086 27.3325 25.0985 28.528C24.4396 31.0576 23.4318 33.4791 22.8545 36.0311" stroke="black" stroke-width="1.122" stroke-miterlimit="10"/>
<path d="M19.6823 8.18692L19.564 1" stroke="black" stroke-width="1.49736" stroke-miterlimit="10"/>
<path d="M5.97556 14.8713L1 9.68359" stroke="black" stroke-width="1.49736" stroke-miterlimit="10"/>
<path d="M33.4402 15.1949L38.5259 10.1152" stroke="black" stroke-width="1.49736" stroke-miterlimit="10"/>
</svg>
