<svg width="378" height="262" viewBox="0 0 378 262" fill="none" xmlns="http://www.w3.org/2000/svg">
<path d="M345.161 27.6809H269.751C265.911 27.6809 262.799 30.7849 262.799 34.6138V142.152C262.799 145.981 265.911 149.085 269.751 149.085H345.161C349 149.085 352.113 145.981 352.113 142.152V34.6138C352.113 30.7849 349 27.6809 345.161 27.6809Z" stroke="#D1D1D1" stroke-width="1.68" stroke-miterlimit="10"/>
<path d="M341.906 40.1895H273.92C272.001 40.1895 270.444 41.7414 270.444 43.6559V58.0758C270.444 59.9902 272.001 61.5422 273.92 61.5422H341.906C343.826 61.5422 345.382 59.9902 345.382 58.0758V43.6559C345.382 41.7414 343.826 40.1895 341.906 40.1895Z" stroke="#D1D1D1" stroke-width="1.68" stroke-miterlimit="10"/>
<path d="M307.455 49.183C308.678 49.183 309.67 48.1943 309.67 46.9748C309.67 45.7553 308.678 44.7666 307.455 44.7666C306.233 44.7666 305.241 45.7553 305.241 46.9748C305.241 48.1943 306.233 49.183 307.455 49.183Z" fill="#D1D1D1"/>
<path d="M301.268 56.9673C301.268 55.3307 301.919 53.7613 303.08 52.6043C304.24 51.4468 305.814 50.7969 307.455 50.7969C309.096 50.7969 310.67 51.4468 311.83 52.6043C312.991 53.7613 313.642 55.3307 313.642 56.9673H301.268Z" fill="#D1D1D1"/>
<path d="M307.907 84.427C305.548 84.4278 303.242 85.1261 301.281 86.4335C299.32 87.7409 297.792 89.5992 296.89 91.7728C295.988 93.9464 295.752 96.3379 296.213 98.6452C296.674 100.952 297.81 103.071 299.479 104.734C301.147 106.398 303.272 107.53 305.586 107.989C307.899 108.447 310.298 108.212 312.477 107.311C314.656 106.411 316.518 104.886 317.829 102.93C319.14 100.974 319.839 98.6744 319.839 96.322C319.839 94.7596 319.53 93.2123 318.931 91.769C318.331 90.3254 317.452 89.0138 316.344 87.9093C315.236 86.8048 313.921 85.9286 312.473 85.3311C311.025 84.7336 309.474 84.4262 307.907 84.427ZM307.907 105.346C307.459 105.324 307.037 105.131 306.728 104.808C306.418 104.484 306.246 104.054 306.246 103.607C306.246 103.16 306.418 102.73 306.728 102.406C307.037 102.082 307.459 101.889 307.907 101.868C308.355 101.889 308.777 102.082 309.086 102.406C309.396 102.73 309.568 103.16 309.568 103.607C309.568 104.054 309.396 104.484 309.086 104.808C308.777 105.131 308.355 105.324 307.907 105.346ZM310.109 91.9682C309.741 94.5472 309.432 97.2553 308.659 99.7635C308.475 100.368 307.339 100.368 307.155 99.7635C306.611 97.8778 306.192 95.9583 305.902 94.018C305.663 92.6056 304.836 90.3183 305.626 88.9476C306.324 87.6976 308.287 87.5726 309.428 88.2143C310.827 89.0017 310.276 90.6849 310.109 91.9682Z" fill="#FFA940"/>
<path d="M177.395 51.7844C173.213 50.5408 168.755 50.562 164.585 51.8448C160.415 53.1281 156.721 55.6154 153.969 58.9927C151.216 62.37 149.53 66.4851 149.124 70.8182C148.717 75.1508 149.607 79.5067 151.683 83.3348C153.758 87.1629 156.926 90.2914 160.784 92.3242C164.643 94.357 169.019 95.2032 173.36 94.7557C177.7 94.3078 181.811 92.5867 185.17 89.8094C188.53 87.0325 190.988 83.324 192.235 79.1534C193.063 76.3844 193.336 73.4801 193.038 70.6061C192.74 67.7321 191.877 64.9448 190.5 62.4033C189.121 59.8618 187.255 57.6161 185.007 55.7941C182.758 53.9718 180.172 52.6094 177.395 51.7844ZM166.311 88.8653C165.514 88.6028 164.851 88.0412 164.463 87.2991C164.075 86.5575 163.992 85.6938 164.231 84.8918C164.471 84.0898 165.015 83.4127 165.747 83.004C166.48 82.5953 167.343 82.4874 168.154 82.7032C168.571 82.814 168.961 83.0073 169.301 83.2711C169.642 83.5352 169.926 83.8648 170.137 84.2402C170.347 84.6156 170.481 85.0297 170.528 85.4572C170.575 85.8847 170.536 86.3175 170.413 86.73C170.29 87.1421 170.085 87.5258 169.81 87.8579C169.536 88.1895 169.197 88.4632 168.815 88.6624C168.432 88.8615 168.014 88.9819 167.584 89.0169C167.153 89.0515 166.721 89.0003 166.311 88.8653ZM177.299 66.3085C175.281 70.6873 173.292 75.3245 170.614 79.3617C169.971 80.3367 167.953 79.7367 167.949 78.5701C167.983 74.9445 168.262 71.3256 168.784 67.7375C169.11 65.1169 168.855 60.6255 170.982 58.609C172.87 56.8049 176.413 57.5799 178.105 59.3131C180.14 61.4296 178.277 64.1253 177.299 66.3085Z" fill="#FF8D00"/>
<path d="M115.772 100.498C114.242 102.051 113.208 104.021 112.801 106.16C112.394 108.299 112.632 110.51 113.485 112.514C114.337 114.518 115.767 116.224 117.592 117.418C119.418 118.612 121.557 119.239 123.74 119.22C125.923 119.202 128.051 118.538 129.856 117.313C131.66 116.089 133.06 114.358 133.878 112.34C134.697 110.321 134.896 108.107 134.453 105.975C134.009 103.843 132.941 101.892 131.385 100.365C129.296 98.3184 126.479 97.1827 123.551 97.2077C120.623 97.2327 117.825 98.4164 115.772 100.498ZM129.618 114.068C129.469 114.219 129.292 114.339 129.097 114.422C128.902 114.504 128.693 114.548 128.481 114.55C128.269 114.552 128.059 114.512 127.863 114.433C127.666 114.354 127.488 114.237 127.336 114.089C127.185 113.941 127.065 113.765 126.982 113.57C126.899 113.376 126.856 113.167 126.853 112.956C126.852 112.745 126.891 112.535 126.971 112.339C127.05 112.143 127.167 111.965 127.316 111.814C127.615 111.51 128.024 111.337 128.452 111.333C128.88 111.329 129.291 111.495 129.597 111.793C129.902 112.092 130.075 112.5 130.08 112.927C130.083 113.353 129.917 113.764 129.618 114.068ZM122.194 103.948C123.66 105.865 125.252 107.827 126.409 109.96C126.689 110.473 125.954 111.21 125.436 110.952C123.84 110.083 122.305 109.109 120.84 108.035C119.749 107.281 117.702 106.34 117.305 104.927C116.946 103.677 118.141 102.286 119.286 101.957C120.694 101.548 121.45 103.002 122.194 103.948Z" fill="#FFA940"/>
<path d="M277.939 71.0732H336.208" stroke="#D1D1D1" stroke-width="1.68" stroke-miterlimit="10"/>
<path d="M277.939 76.7957H336.208" stroke="#D1D1D1" stroke-width="1.68" stroke-miterlimit="10"/>
<path d="M277.939 113.624H336.208" stroke="#D1D1D1" stroke-width="1.68" stroke-miterlimit="10"/>
<path d="M291.471 119.035H322.671" stroke="#D1D1D1" stroke-width="1.68" stroke-miterlimit="10"/>
<path d="M352.117 106.114C357.256 112.555 362.144 120.538 366.564 130.374C393.478 190.312 359.838 220.731 359.838 220.731" stroke="#8C8C8C" stroke-width="1.68" stroke-miterlimit="10"/>
<path d="M71.0101 153.644C71.0101 153.644 31.0741 108.468 80.874 86.0985C130.674 63.7292 140.534 60.621 136.941 37.3518C133.348 14.0825 161.59 -9.61178 206.005 6.04551C250.419 21.7028 251.309 51.2092 248.159 74.0201C246.371 87.0234 253.77 90.1482 262.782 89.4941" stroke="#8C8C8C" stroke-width="1.68" stroke-miterlimit="10"/>
<path d="M349.301 240.229C349.199 242.723 348.552 245.164 347.404 247.382C347.359 247.493 347.306 247.6 347.245 247.703C345.232 251.311 342.414 254.41 339.011 256.761L338.89 256.844C335.817 258.894 332.361 260.304 328.729 260.99H367.391C367.391 260.99 362.219 187.432 314.683 151.643C268.681 117.012 225.611 133.703 222.879 134.819C223.726 137.202 224.104 139.726 223.995 142.252C223.995 142.252 227.454 144.048 228.03 150.476C228.607 156.905 229.81 174.779 218.242 178.145C218.242 178.145 207.856 177.891 205.111 173.917C202.366 169.942 201.706 170.75 200.628 171.758C199.792 172.521 194.75 175.246 192.423 176.496C192.717 176.51 190.983 178.079 191.27 178.145C191.27 178.145 189.95 183.161 206.256 200.738C206.809 201.319 212.009 206.6 212.497 207.235C214.959 209.382 217.727 211.574 220.799 213.81L239.407 227.388C239.827 227.744 240.325 227.997 240.861 228.125C241.902 228.387 242.99 228.397 244.036 228.155C246.2 227.738 260.977 226.234 270.54 225.284C270.757 225.284 270.987 225.242 271.2 225.217L272.453 225.096C272.654 225.096 272.871 225.055 273.047 225.042L274.175 224.934C274.726 224.88 275.223 224.826 275.683 224.788L276.936 224.667C278.043 224.559 278.699 224.492 278.754 224.492C281.032 224.428 283.303 224.208 285.551 223.834C287.703 223.417 289.666 222.747 290.176 221.634C290.272 221.4 290.308 221.144 290.28 220.893C290.165 220.185 289.868 219.519 289.42 218.959C287.456 216.33 282.894 214.076 282.56 213.914C282.55 213.911 282.54 213.911 282.53 213.914L282.439 213.847L255.283 192.807H255.253C255.253 192.807 259.343 149.293 296.614 160.001C296.614 160.001 296.789 160.122 297.111 160.388C298.565 161.505 303.14 165.205 309.866 172.117C310.042 172.304 310.23 172.492 310.418 172.692C311.132 173.417 311.834 174.171 312.532 174.908C317.252 179.941 322.838 186.353 329.001 194.349L329.042 194.39C336.103 203.556 341.192 211.956 344.5 219.388V219.413C348.081 227.492 349.589 234.412 349.292 239.933C349.302 240.031 349.304 240.13 349.301 240.229ZM237.935 169.491C236.832 156.812 238.606 153.441 238.952 153.187C230.154 169.061 245.31 183.529 250.411 189.061C249.943 188.67 239.038 182.165 237.935 169.491Z" fill="#505050"/>
<path d="M213.517 162.952C213.059 163.288 212.582 163.597 212.088 163.877L209.222 158.878C215.831 155.507 217.686 149.566 214.778 146.303C213.965 145.411 212.917 144.764 211.753 144.437C208.829 143.554 206.803 144.853 205.428 146.599C204.306 148.117 203.484 149.833 203.005 151.657L201.61 135.608L201.501 134.358C201.501 134.358 198.46 132.854 190.221 134.196C181.982 135.537 180.466 140.075 176.927 138.062C173.388 136.05 171.383 136.212 171.383 136.212C170.376 139.9 167.681 139.9 167.681 139.9C167.043 139.823 166.416 139.67 165.814 139.446C161.991 135.942 160.955 129.863 160.955 129.863C164.966 129.367 165.275 125.517 164.815 122.363C167.038 123.68 170.171 123.772 174.571 120.955C187.192 112.906 200.135 117.264 204.685 117.934C206.715 118.23 208.938 117.518 210.78 116.685C211.018 117.11 211.35 117.476 211.749 117.755C214.82 119.889 217.353 122.704 219.148 125.98C230.992 148.057 218.008 159.782 213.517 162.952Z" fill="#383494"/>
<path d="M166.236 260.999H170.999C173.036 260.996 174.989 260.188 176.43 258.752C177.87 257.315 178.68 255.368 178.682 253.337V248.02C178.682 247.536 178.587 247.056 178.4 246.608C178.214 246.16 177.941 245.754 177.598 245.411C177.254 245.069 176.846 244.797 176.397 244.612C175.948 244.427 175.467 244.333 174.981 244.333H146.496C146.497 245.465 146.274 246.585 145.841 247.631C145.407 248.676 144.77 249.626 143.968 250.426C143.165 251.226 142.212 251.86 141.164 252.293C140.115 252.725 138.991 252.947 137.856 252.945H34.9268C34.928 255.081 35.779 257.128 37.2935 258.638C38.8076 260.149 40.861 260.997 43.0025 260.999H182.543C182.725 260.999 182.906 260.964 183.074 260.894C183.242 260.825 183.396 260.723 183.525 260.594C183.653 260.466 183.756 260.313 183.825 260.145C183.895 259.977 183.93 259.797 183.93 259.615V250.987C183.93 249.31 184.597 247.703 185.786 246.517C186.974 245.332 188.587 244.666 190.267 244.666C191.948 244.666 193.56 245.332 194.749 246.517C195.938 247.703 196.605 249.31 196.605 250.987V259.615C196.605 259.796 196.64 259.976 196.709 260.144C196.779 260.312 196.88 260.464 197.009 260.593C197.137 260.721 197.29 260.823 197.458 260.893C197.626 260.963 197.806 260.999 197.988 260.999H367.391C367.391 260.999 362.219 187.424 314.684 151.639C268.681 117.008 225.612 133.699 222.88 134.815L222.746 134.865" stroke="#141414" stroke-width="1.68" stroke-miterlimit="10"/>
<path d="M175.248 152.822C175.246 153.284 175.107 153.737 174.848 154.12C174.589 154.504 174.222 154.803 173.793 154.979C173.364 155.155 172.893 155.201 172.438 155.109C171.983 155.019 171.566 154.795 171.238 154.468C170.91 154.141 170.687 153.724 170.597 153.27C170.506 152.816 170.553 152.346 170.73 151.919C170.907 151.491 171.208 151.126 171.593 150.868C171.979 150.611 172.432 150.473 172.896 150.472C173.077 150.473 173.258 150.496 173.435 150.539C173.191 150.616 172.979 150.768 172.829 150.973C172.678 151.178 172.598 151.426 172.599 151.68C172.598 151.84 172.628 151.998 172.689 152.146C172.749 152.294 172.838 152.428 172.951 152.542C173.063 152.655 173.197 152.745 173.345 152.807C173.492 152.869 173.651 152.901 173.811 152.901C174.103 152.895 174.385 152.788 174.606 152.597C174.827 152.406 174.974 152.143 175.022 151.855C175.166 152.158 175.243 152.487 175.248 152.822Z" fill="#141414"/>
<path d="M191.546 153.476C191.546 153.941 191.409 154.396 191.15 154.783C190.892 155.17 190.524 155.472 190.094 155.65C189.663 155.829 189.19 155.876 188.732 155.786C188.275 155.696 187.854 155.472 187.524 155.143C187.195 154.815 186.97 154.396 186.878 153.94C186.787 153.484 186.834 153.012 187.012 152.582C187.19 152.152 187.492 151.785 187.88 151.527C188.267 151.268 188.723 151.13 189.189 151.13C189.302 151.13 189.414 151.143 189.523 151.168C189.315 151.264 189.139 151.417 189.015 151.61C188.891 151.802 188.825 152.027 188.826 152.255C188.812 152.576 188.925 152.889 189.142 153.126C189.359 153.362 189.662 153.504 189.983 153.518C190.304 153.532 190.618 153.419 190.856 153.202C191.093 152.986 191.235 152.684 191.249 152.364C191.442 152.703 191.544 153.086 191.546 153.476Z" fill="#141414"/>
<path d="M210.342 113.383C210.07 115.207 210.409 116.807 211.754 117.757C214.825 119.891 217.358 122.706 219.153 125.982C233.282 152.309 212.088 163.896 212.088 163.896L209.222 158.896C217.473 154.696 218.317 146.472 211.754 144.456C205.19 142.439 203.005 151.676 203.005 151.676L201.501 134.364C201.501 134.364 198.46 132.86 190.221 134.202C181.983 135.544 180.466 140.081 176.927 138.068C173.389 136.056 171.383 136.219 171.383 136.219C170.376 139.906 167.682 139.906 167.682 139.906C159.786 138.902 157.931 128.007 157.931 128.007C161.937 127.507 162.246 123.657 161.791 120.507C164.009 121.824 167.147 121.92 171.546 119.099C184.168 111.049 197.11 115.412 201.656 116.082C204.798 116.537 208.403 114.62 210.342 113.383Z" stroke="#141414" stroke-width="1.68" stroke-linecap="round" stroke-linejoin="round"/>
<path d="M217.627 243.941L220.748 242.691L223.088 248.987L222.72 260.411L219.558 260.982L207.555 260.465C207.555 260.465 208.39 253.499 210.943 250.186C213.496 246.874 217.627 243.941 217.627 243.941Z" fill="#6159FF"/>
<path d="M162.978 143.755C162.978 143.755 166.174 138.034 172.9 138.63" stroke="#141414" stroke-width="1.68" stroke-miterlimit="10"/>
<path d="M186.072 138.63C186.072 138.63 193.76 136.91 196.45 141.172" stroke="#141414" stroke-width="1.68" stroke-miterlimit="10"/>
<path d="M197.983 164.531C197.983 164.531 193.388 161.877 190.024 166.34" stroke="#141414" stroke-width="1.68" stroke-miterlimit="10"/>
<path d="M168.943 139.549C168.943 139.549 165.672 177.926 190.066 177.217C194.244 177.097 198.397 174.359 202.366 169.955" stroke="#141414" stroke-width="1.68" stroke-miterlimit="10"/>
<path d="M212.088 173.448L202.366 169.956C202.366 169.956 204.777 177.639 216.717 178.227C228.657 178.814 232.664 151.487 223.89 140.492" stroke="#141414" stroke-width="1.68" stroke-linejoin="round"/>
<path d="M250.098 250.432C250.098 250.432 241.187 257.644 247.241 260.998" stroke="#141414" stroke-width="1.68" stroke-miterlimit="10"/>
<path d="M243.204 243.719C243.204 243.719 227.746 252.444 241.019 260.998" stroke="#141414" stroke-width="1.68" stroke-miterlimit="10"/>
<path d="M237.991 237.011C237.991 237.011 217.473 246.594 233.282 260.997" stroke="#141414" stroke-width="1.68" stroke-miterlimit="10"/>
<path d="M324.271 260.999C324.271 260.999 349.163 260.999 349.497 237.013C349.831 213.027 301.23 152.798 269.78 144.42C238.329 136.041 236.979 159.002 236.979 159.943C236.979 160.885 235.133 170.776 243.204 181.33C249.438 189.487 276.97 209.853 289.186 218.702C289.634 219.028 289.973 219.482 290.157 220.004C290.34 220.526 290.36 221.092 290.214 221.625C290.068 222.159 289.761 222.636 289.337 222.992C288.912 223.348 288.388 223.566 287.836 223.618L233.808 228.793H233.775C233.265 228.885 214.197 232.393 208.39 238.351C208.39 238.351 205.136 240.755 206.819 244.446C208.503 248.138 213.675 246.921 213.817 246.784" stroke="#141414" stroke-width="1.68" stroke-miterlimit="10"/>
<path opacity="0.26" d="M189.193 157.834C192.908 157.834 195.919 154.831 195.919 151.126C195.919 147.422 192.908 144.418 189.193 144.418C185.478 144.418 182.467 147.422 182.467 151.126C182.467 154.831 185.478 157.834 189.193 157.834Z" fill="white"/>
<path opacity="0.26" d="M172.123 157.172C175.838 157.172 178.849 154.169 178.849 150.464C178.849 146.759 175.838 143.756 172.123 143.756C168.408 143.756 165.396 146.759 165.396 150.464C165.396 154.169 168.408 157.172 172.123 157.172Z" fill="white"/>
<path d="M230.265 242.885C227.901 242.227 224.036 241.635 220.055 242.91C218.108 243.535 216.311 244.555 214.778 245.905C214.444 246.197 214.122 246.493 213.813 246.789C213.147 247.44 212.518 248.129 211.929 248.851C211.852 248.947 211.741 249.01 211.62 249.03C210.137 249.234 200.373 250.776 200.423 255.696C200.469 260.117 205.324 260.842 206.995 260.959C207.064 260.965 207.133 260.957 207.199 260.935C207.264 260.913 207.325 260.878 207.376 260.832C207.428 260.786 207.469 260.729 207.497 260.667C207.526 260.604 207.541 260.536 207.542 260.467C207.542 258.892 207.901 253.955 211.808 248.989" stroke="#141414" stroke-width="1.68" stroke-miterlimit="10"/>
<path d="M142.297 208.157C143.442 217.361 136.269 221.523 128.427 222.14" stroke="#141414" stroke-width="1.68" stroke-miterlimit="10"/>
<path d="M117.03 220.216C114.04 218.605 111.618 216.117 110.092 213.089C108.566 210.06 108.01 206.638 108.499 203.284C109.752 194.43 117.272 187.639 124.633 183.331C140.092 174.286 174.926 180.831 180.78 182.164C185.267 183.189 189.018 179.689 190.539 177.998C190.604 177.926 190.687 177.874 190.78 177.849C190.874 177.823 190.972 177.824 191.065 177.853C191.157 177.882 191.239 177.936 191.301 178.009C191.364 178.083 191.404 178.173 191.416 178.269C194.629 197.017 231.941 222.466 240.573 228.161" stroke="#141414" stroke-width="1.68" stroke-miterlimit="10"/>
<path d="M151.71 201.788L139.356 209.434C138.62 209.891 137.795 210.189 136.937 210.309C136.078 210.429 135.204 210.368 134.37 210.13C133.536 209.892 132.761 209.483 132.096 208.928C131.431 208.373 130.889 207.685 130.507 206.909C129.818 205.514 129.682 203.913 130.125 202.422C130.567 200.931 131.558 199.662 132.897 198.868L151.697 187.698" stroke="#141414" stroke-width="1.68" stroke-miterlimit="10"/>
<path d="M189.193 157.834C192.908 157.834 195.919 154.831 195.919 151.126C195.919 147.422 192.908 144.418 189.193 144.418C185.478 144.418 182.467 147.422 182.467 151.126C182.467 154.831 185.478 157.834 189.193 157.834Z" stroke="#141414" stroke-width="1.68" stroke-miterlimit="10"/>
<path d="M172.123 156.169C175.282 156.169 177.842 153.615 177.842 150.465C177.842 147.315 175.282 144.761 172.123 144.761C168.964 144.761 166.403 147.315 166.403 150.465C166.403 153.615 168.964 156.169 172.123 156.169Z" stroke="white" stroke-width="1.68" stroke-miterlimit="10"/>
<path d="M172.123 157.172C175.838 157.172 178.849 154.169 178.849 150.464C178.849 146.759 175.838 143.756 172.123 143.756C168.408 143.756 165.396 146.759 165.396 150.464C165.396 154.169 168.408 157.172 172.123 157.172Z" stroke="#141414" stroke-width="1.68" stroke-miterlimit="10"/>
<path d="M182.5 150.464H178.849" stroke="#141414" stroke-width="1.68" stroke-miterlimit="10"/>
<path d="M182.5 159.943H180.094C179.942 159.943 179.793 159.91 179.656 159.846C179.519 159.782 179.398 159.688 179.301 159.572C179.204 159.455 179.135 159.32 179.097 159.173C179.059 159.027 179.054 158.875 179.083 158.726L180.674 150.464" stroke="#141414" stroke-width="1.68" stroke-miterlimit="10"/>
<path d="M134.217 182.836C134.217 182.836 125.639 184.682 122.615 197.598C120.776 205.439 118.253 215.442 116.557 222.092C116.339 222.945 116.32 223.836 116.5 224.698C116.681 225.559 117.056 226.368 117.598 227.063C118.139 227.758 118.833 228.321 119.625 228.707C120.418 229.094 121.289 229.296 122.172 229.296C123.49 229.296 124.768 228.848 125.797 228.026C126.825 227.204 127.542 226.057 127.829 224.775L131.417 208.718" stroke="#141414" stroke-width="1.68" stroke-miterlimit="10"/>
<path d="M142.059 213.027C142.059 213.027 151.062 207.661 168.797 213.027C186.532 218.394 206.92 222.035 213.646 207.803" stroke="#141414" stroke-width="1.68" stroke-miterlimit="10"/>
<path d="M220.059 242.909C220.059 242.909 226.325 250.042 222.515 261" stroke="#141414" stroke-width="1.68" stroke-miterlimit="10"/>
<path d="M12.976 154.208H111.991C115.18 154.204 118.278 155.27 120.786 157.235C123.293 159.2 125.065 161.95 125.815 165.041L141.578 230.145C142.004 231.901 142.024 233.731 141.637 235.497C141.251 237.262 140.467 238.918 139.347 240.338C138.225 241.758 136.796 242.905 135.166 243.695C133.536 244.484 131.747 244.894 129.935 244.894H31.1747C27.9916 244.897 24.8995 243.833 22.3949 241.874C19.8905 239.915 18.1182 237.174 17.3627 234.09L1.34485 168.999C0.912313 167.24 0.886328 165.406 1.26881 163.637C1.65129 161.867 2.43226 160.206 3.55263 158.782C4.67304 157.357 6.10358 156.205 7.73607 155.413C9.36861 154.62 11.1604 154.208 12.976 154.208Z" fill="#F0F0FF"/>
<path d="M70.4771 190.565C68.2973 190.581 66.1729 191.243 64.373 192.468C62.5727 193.692 61.1773 195.424 60.3635 197.444C59.5494 199.464 59.3533 201.681 59.8002 203.816C60.2468 205.951 61.3157 207.907 62.8725 209.438C64.4293 210.968 66.4032 212.004 68.5456 212.414C70.6876 212.824 72.9014 212.59 74.9069 211.741C76.9127 210.893 78.62 209.468 79.8135 207.647C81.007 205.826 81.6322 203.691 81.6112 201.511C81.5815 198.587 80.3923 195.791 78.3043 193.739C76.2163 191.686 73.401 190.545 70.4771 190.565ZM70.6719 209.951C70.4604 209.952 70.2505 209.912 70.0542 209.833C69.8577 209.753 69.679 209.636 69.5278 209.488C69.3768 209.339 69.2562 209.163 69.1733 208.968C69.0902 208.773 69.0465 208.564 69.0442 208.352C69.0418 208.141 69.0814 207.931 69.1604 207.735C69.2389 207.539 69.3561 207.36 69.504 207.21C69.6522 207.059 69.8284 206.939 70.023 206.857C70.2173 206.774 70.4264 206.731 70.6379 206.729C71.0651 206.726 71.4766 206.893 71.782 207.192C72.0872 207.492 72.261 207.9 72.2657 208.327C72.2704 208.755 72.1046 209.166 71.8058 209.47C71.5068 209.775 71.099 209.947 70.6719 209.951ZM72.5783 197.545C72.26 199.937 71.998 202.45 71.3079 204.777C71.1435 205.337 70.1021 205.339 69.9184 204.79C69.4045 203.047 69.0076 201.273 68.7311 199.478C68.4933 198.174 67.7115 196.06 68.4296 194.781C69.0594 193.643 70.8883 193.504 71.9304 194.081C73.2147 194.788 72.7212 196.35 72.5783 197.545Z" fill="#CEB7FF"/>
<path d="M12.976 154.208H111.991C115.18 154.204 118.278 155.27 120.786 157.235C123.293 159.2 125.065 161.95 125.815 165.041L141.578 230.145C142.004 231.901 142.024 233.731 141.637 235.497C141.251 237.262 140.467 238.918 139.347 240.338C138.225 241.758 136.796 242.905 135.166 243.695C133.536 244.484 131.747 244.894 129.935 244.894H31.1747C27.9916 244.897 24.8995 243.833 22.3949 241.874C19.8905 239.915 18.1182 237.174 17.3627 234.09L1.34485 168.999C0.912313 167.24 0.886328 165.406 1.26881 163.637C1.65129 161.867 2.43226 160.206 3.55263 158.782C4.67304 157.357 6.10358 156.205 7.73607 155.413C9.36861 154.62 11.1604 154.208 12.976 154.208Z" stroke="#141414" stroke-width="1.68" stroke-miterlimit="10"/>
</svg>
