<svg width="440" height="440" viewBox="0 0 440 440" fill="none" xmlns="http://www.w3.org/2000/svg">
<path d="M141.174 172.639H108.993C108.097 172.639 107.21 172.462 106.383 172.119C105.555 171.776 104.803 171.273 104.17 170.639C103.537 170.005 103.035 169.253 102.693 168.425C102.351 167.597 102.176 166.71 102.177 165.814V88.4404C102.177 87.5454 102.353 86.6593 102.696 85.8325C103.039 85.0062 103.541 84.2551 104.174 83.6224C104.806 82.9897 105.558 82.4881 106.385 82.1462C107.211 81.8043 108.098 81.6283 108.993 81.6292H162.123C163.019 81.6261 163.907 81.8003 164.737 82.1409C165.566 82.4819 166.319 82.9831 166.955 83.6158C167.59 84.2485 168.094 85.0005 168.438 85.8281C168.782 86.6562 168.96 87.5437 168.96 88.4404V109.31" stroke="#CCDDE2" stroke-width="1.98" stroke-miterlimit="10"/>
<path d="M160.508 91.0045H111.303C109.42 91.0045 107.893 92.5313 107.893 94.4145V103.602C107.893 105.485 109.42 107.012 111.303 107.012H160.508C162.391 107.012 163.918 105.485 163.918 103.602V94.4145C163.918 92.5313 162.391 91.0045 160.508 91.0045Z" stroke="#CCDDE2" stroke-width="1.98" stroke-miterlimit="10"/>
<path d="M135.56 97.7457C136.474 97.7457 137.215 97.0047 137.215 96.0913C137.215 95.1774 136.474 94.4369 135.56 94.4369C134.646 94.4369 133.906 95.1774 133.906 96.0913C133.906 97.0047 134.646 97.7457 135.56 97.7457Z" fill="#D7E8F0"/>
<path d="M130.935 103.584C130.897 102.953 130.987 102.321 131.201 101.727C131.416 101.132 131.75 100.588 132.183 100.128C132.616 99.6677 133.138 99.3008 133.718 99.05C134.298 98.7992 134.923 98.6698 135.555 98.6698C136.187 98.6698 136.812 98.7992 137.392 99.05C137.972 99.3008 138.495 99.6677 138.928 100.128C139.36 100.588 139.694 101.132 139.909 101.727C140.124 102.321 140.214 102.953 140.175 103.584H130.935Z" fill="#D7E8F0"/>
<path d="M135.898 124.168C134.134 124.168 132.41 124.691 130.943 125.671C129.476 126.651 128.333 128.044 127.658 129.673C126.983 131.303 126.806 133.097 127.151 134.827C127.495 136.557 128.344 138.146 129.592 139.393C130.839 140.64 132.428 141.49 134.158 141.834C135.888 142.178 137.681 142.001 139.311 141.326C140.941 140.651 142.334 139.508 143.314 138.042C144.294 136.575 144.817 134.85 144.817 133.087C144.817 131.915 144.587 130.755 144.139 129.673C143.691 128.591 143.034 127.607 142.206 126.779C141.377 125.951 140.394 125.294 139.312 124.846C138.23 124.397 137.069 124.167 135.898 124.168ZM135.898 139.849C135.589 139.798 135.309 139.639 135.107 139.401C134.904 139.162 134.793 138.86 134.793 138.547C134.793 138.234 134.904 137.931 135.107 137.693C135.309 137.454 135.589 137.296 135.898 137.245C136.087 137.213 136.281 137.224 136.465 137.275C136.65 137.326 136.821 137.417 136.967 137.541C137.113 137.664 137.23 137.819 137.311 137.993C137.392 138.166 137.433 138.356 137.433 138.547C137.433 138.738 137.392 138.928 137.311 139.102C137.23 139.276 137.113 139.43 136.967 139.554C136.821 139.677 136.65 139.768 136.465 139.819C136.281 139.87 136.087 139.881 135.898 139.849ZM137.548 129.822C137.336 131.794 136.973 133.748 136.461 135.665C136.408 135.767 136.327 135.853 136.228 135.913C136.129 135.972 136.016 136.004 135.9 136.004C135.785 136.004 135.672 135.972 135.573 135.913C135.474 135.853 135.393 135.767 135.339 135.665C134.932 134.252 134.62 132.812 134.407 131.357C134.226 130.301 133.61 128.585 134.2 127.556C134.719 126.636 136.189 126.526 137.038 127.006C138.081 127.6 137.671 128.858 137.548 129.822Z" fill="#D7E8F0"/>
<path d="M113.494 114.158H157.058" stroke="#CCDDE2" stroke-width="1.98" stroke-miterlimit="10"/>
<path d="M113.494 118.448H157.058" stroke="#CCDDE2" stroke-width="1.98" stroke-miterlimit="10"/>
<path d="M113.494 146.058H157.058" stroke="#CCDDE2" stroke-width="1.98" stroke-miterlimit="10"/>
<path d="M123.614 150.116H146.938" stroke="#CCDDE2" stroke-width="1.98" stroke-miterlimit="10"/>
<path d="M382.628 156.104H315.85C310.29 156.104 305.782 160.612 305.782 166.171V280.224C305.782 285.784 310.29 290.291 315.85 290.291H382.628C388.188 290.291 392.696 285.784 392.696 280.224V166.171C392.696 160.612 388.188 156.104 382.628 156.104Z" fill="#6159FF"/>
<path d="M291.346 156.104H244.847C239.287 156.104 234.78 160.612 234.78 166.171V280.224C234.78 285.784 239.287 290.291 244.847 290.291H291.346C296.906 290.291 301.413 285.784 301.413 280.224V166.171C301.413 160.612 296.906 156.104 291.346 156.104Z" fill="#6159FF"/>
<path d="M238.63 358.525H392.216C394.87 358.524 397.415 357.47 399.291 355.594C401.168 353.718 402.224 351.174 402.226 348.52V157.872C402.227 156.558 401.968 155.256 401.465 154.041C400.963 152.826 400.225 151.722 399.296 150.793C398.366 149.863 397.262 149.126 396.048 148.623C394.833 148.12 393.531 147.861 392.216 147.862H287.839L260.559 148.025H260.48L246.686 148.562H246.642L243.012 148.703H242.691L242.423 150.863L241.895 154.88C241.9 154.888 241.903 154.897 241.903 154.907C241.903 154.916 241.9 154.925 241.895 154.933L237.6 161.296L236.72 162.585L234.296 178.099V178.174C234.243 178.152 234.19 178.121 234.124 178.086C234.071 178.055 234.021 178.02 233.975 177.98C233.159 177.366 232.546 176.522 232.215 175.556C231.409 173.514 231.216 170.808 231.207 168.661L230.679 180.449V180.493L229.944 196.24L229.764 200.469C230.107 199.857 230.6 198.977 231.172 197.926L229.346 209.594L228.967 218.003L228.026 239.25L227.991 240.042V240.346L227.744 245.52V245.639C227.744 245.639 227.04 260.824 227.04 260.846L226.974 262.254L226.16 268.4L223.784 285.6V348.52C223.785 350.312 224.268 352.072 225.183 353.613C226.098 355.155 227.412 356.421 228.985 357.28C231.964 358.895 235.259 358.68 238.533 358.57C239.413 358.543 240.293 358.504 241.173 358.455" fill="#6159FF"/>
<path d="M232.8 355.243C232.738 355.243 232.672 355.186 232.597 355.164C231.761 354.865 230.97 354.45 230.248 353.932C228.98 353.032 227.947 351.84 227.236 350.457C226.525 349.074 226.156 347.541 226.16 345.986V262.016L223.784 263.156L223.634 263.231L223.313 262.434L221.725 258.474L221.285 257.379L217.268 247.351C217.268 247.351 224.897 216.481 229.944 196.241C231.792 188.809 233.297 182.807 233.93 180.286C234.124 179.534 234.238 179.094 234.26 179.019C234.262 179.001 234.262 178.984 234.26 178.966C234.274 178.816 234.251 178.666 234.194 178.526C234.132 178.364 234.057 178.206 233.97 178.055C233.96 178.024 233.945 177.994 233.926 177.967C233.403 177.077 232.815 176.227 232.166 175.424L231.33 165.071L231.466 164.965L232.1 164.459L236.43 161.027L237.437 158.361L239.413 153.178L240.293 150.868H242.387H242.924H246.712L260.713 150.824H261.914L288.477 150.665H390.113C391.393 150.665 392.66 150.918 393.842 151.408C395.024 151.898 396.099 152.616 397.003 153.522C397.907 154.427 398.624 155.502 399.113 156.685C399.601 157.868 399.852 159.136 399.85 160.416V345.986C399.852 347.266 399.601 348.533 399.113 349.716C398.624 350.899 397.907 351.974 397.003 352.88C396.099 353.785 395.024 354.503 393.842 354.993C392.66 355.484 391.393 355.736 390.113 355.736H238.814" fill="#6159FF"/>
<path d="M242.969 148.122L246.568 148.1H246.643L260.459 148.025H260.555L287.835 147.862H392.217C394.871 147.863 397.417 148.918 399.294 150.795C401.171 152.672 402.225 155.218 402.227 157.872V348.52C402.224 351.174 401.169 353.718 399.292 355.594C397.415 357.47 394.87 358.524 392.217 358.526H233.522C230.936 358.526 228.456 357.498 226.628 355.669C224.799 353.841 223.771 351.361 223.771 348.775V327.959" stroke="black" stroke-width="1.98" stroke-miterlimit="10"/>
<path d="M382.629 300.145H244.847C239.287 300.145 234.78 304.653 234.78 310.213V338.201C234.78 343.761 239.287 348.268 244.847 348.268H382.629C388.188 348.268 392.696 343.761 392.696 338.201V310.213C392.696 304.653 388.188 300.145 382.629 300.145Z" fill="white"/>
<path d="M337.075 310.865H248.072C246.189 310.865 244.662 312.392 244.662 314.275V334.832C244.662 336.715 246.189 338.242 248.072 338.242H337.075C338.959 338.242 340.485 336.715 340.485 334.832V314.275C340.485 312.392 338.959 310.865 337.075 310.865Z" fill="#6159FF"/>
<path d="M321.108 322.397C322.673 322.397 323.941 321.128 323.941 319.563C323.941 317.998 322.673 316.729 321.108 316.729C319.543 316.729 318.274 317.998 318.274 319.563C318.274 321.128 319.543 322.397 321.108 322.397Z" fill="white"/>
<path d="M313.197 332.375C313.197 330.275 314.031 328.26 315.516 326.775C317.002 325.29 319.016 324.455 321.117 324.455C323.217 324.455 325.232 325.29 326.717 326.775C328.203 328.26 329.037 330.275 329.037 332.375H313.197Z" fill="white"/>
<path d="M364.659 310.869C361.9 310.866 359.202 311.682 356.906 313.213C354.611 314.745 352.821 316.922 351.763 319.471C350.706 322.019 350.428 324.825 350.965 327.531C351.502 330.238 352.83 332.725 354.781 334.677C356.731 336.628 359.217 337.958 361.923 338.496C364.629 339.035 367.434 338.759 369.984 337.703C372.533 336.647 374.712 334.859 376.245 332.564C377.778 330.27 378.595 327.572 378.594 324.813C378.595 322.982 378.235 321.169 377.535 319.478C376.835 317.786 375.809 316.249 374.515 314.954C373.22 313.66 371.684 312.633 369.994 311.932C368.303 311.231 366.49 310.869 364.659 310.869ZM364.659 335.39C364.384 335.403 364.108 335.359 363.849 335.263C363.591 335.166 363.355 335.018 363.155 334.827C362.955 334.637 362.796 334.408 362.688 334.154C362.579 333.9 362.523 333.627 362.523 333.351C362.523 333.074 362.579 332.801 362.688 332.547C362.796 332.293 362.955 332.065 363.155 331.874C363.355 331.683 363.591 331.535 363.849 331.439C364.108 331.342 364.384 331.298 364.659 331.311C365.184 331.336 365.679 331.561 366.041 331.941C366.404 332.321 366.606 332.825 366.606 333.351C366.606 333.876 366.404 334.38 366.041 334.76C365.679 335.14 365.184 335.366 364.659 335.39ZM367.225 319.704C366.785 322.731 366.428 325.908 365.526 328.839C365.324 329.547 363.991 329.547 363.766 328.839C363.127 326.63 362.638 324.381 362.305 322.107C362.024 320.457 361.06 317.773 361.984 316.171C362.798 314.732 365.095 314.561 366.415 315.291C368.061 316.224 367.401 318.199 367.225 319.704Z" fill="#6159FF"/>
<path d="M379.47 253.106C378.794 258.936 376.38 264.428 372.543 268.869C368.706 273.31 363.622 276.494 357.952 278.009C352.282 279.523 346.287 279.298 340.746 277.362C335.206 275.426 330.376 271.869 326.883 267.152C323.39 262.436 321.396 256.778 321.159 250.914C320.923 245.05 322.455 239.25 325.557 234.267C328.66 229.285 333.188 225.351 338.555 222.975C343.922 220.6 349.879 219.893 355.652 220.946C355.906 220.995 356.147 221.096 356.361 221.241C356.575 221.387 356.756 221.575 356.894 221.793C357.032 222.012 357.124 222.256 357.164 222.512C357.204 222.767 357.191 223.028 357.126 223.278L356.55 225.526L351.384 245.696C351.302 246.018 351.306 246.356 351.395 246.675C351.484 246.995 351.656 247.286 351.893 247.518C352.131 247.75 352.425 247.916 352.746 247.999C353.068 248.081 353.405 248.078 353.725 247.988L373.776 242.383L376.517 241.617C376.761 241.549 377.017 241.53 377.269 241.562C377.52 241.594 377.763 241.676 377.982 241.804C378.201 241.931 378.392 242.102 378.544 242.305C378.696 242.508 378.806 242.74 378.867 242.986C379.656 246.298 379.86 249.723 379.47 253.106Z" fill="white"/>
<path d="M380.16 232.32C380.255 232.566 380.297 232.829 380.283 233.093C380.27 233.356 380.202 233.613 380.083 233.848C379.964 234.083 379.797 234.291 379.593 234.457C379.388 234.624 379.151 234.746 378.897 234.815L377.009 235.343L360.681 239.906C360.361 239.995 360.024 239.998 359.702 239.916C359.38 239.833 359.086 239.667 358.849 239.435C358.612 239.203 358.44 238.912 358.351 238.593C358.261 238.273 358.258 237.935 358.34 237.614L362.56 221.193L362.965 219.618C363.028 219.367 363.143 219.132 363.301 218.928C363.459 218.724 363.658 218.555 363.885 218.431C364.112 218.307 364.361 218.231 364.619 218.208C364.876 218.185 365.135 218.216 365.38 218.298C368.702 219.444 371.74 221.289 374.289 223.707C376.839 226.126 378.84 229.063 380.16 232.32Z" fill="white"/>
<path d="M349.994 182.344C354.436 182.344 358.037 178.743 358.037 174.301C358.037 169.859 354.436 166.258 349.994 166.258C345.552 166.258 341.951 169.859 341.951 174.301C341.951 178.743 345.552 182.344 349.994 182.344Z" fill="#D7E8F0"/>
<path d="M379.663 192.077H321.112V193.687H379.663V192.077Z" fill="#D7E8F0"/>
<path d="M379.663 198.035H321.112V199.645H379.663V198.035Z" fill="#D7E8F0"/>
<path d="M379.663 203.466H321.112V205.077H379.663V203.466Z" fill="#D7E8F0"/>
<path d="M291.161 225.72H245.296V227.331H291.161V225.72Z" fill="#D7E8F0"/>
<path d="M291.161 232.219H245.296V233.83H291.161V232.219Z" fill="#D7E8F0"/>
<path d="M291.161 238.713H245.296V240.324H291.161V238.713Z" fill="#D7E8F0"/>
<path d="M291.161 245.212H245.296V246.823H291.161V245.212Z" fill="#D7E8F0"/>
<path d="M291.161 251.711H245.296V253.322H291.161V251.711Z" fill="#D7E8F0"/>
<path d="M239.004 179.961C239.004 179.961 252.943 201.912 268.827 208.812C284.711 215.711 289.675 218.76 295.751 216.292C301.827 213.823 313.492 210.365 321.711 185.932C329.93 161.498 333.846 148.637 334.137 142.719C334.427 136.801 318.085 141.663 318.085 141.663C318.085 141.663 309.285 167.601 290.005 179.178L262.544 150.173L239.004 179.961Z" fill="white"/>
<path d="M222.716 213.696L233.936 216.741C233.936 216.741 220.907 234.706 232.492 253.516C244.078 272.326 267.934 310.276 267.934 310.276L313.598 382.876L270.891 376.923L239.004 341.995L222.724 325.764L202.322 262.074L222.716 213.696Z" fill="white"/>
<path d="M39.5168 306.536C40.5256 307.081 41.6934 307.257 42.8182 307.033C43.943 306.809 44.9542 306.199 45.6767 305.308L62.2823 284.949L75.6803 268.132L64.7111 261.972C63.575 261.331 62.2304 261.166 60.9733 261.515C59.7158 261.864 58.6484 262.698 58.0055 263.834L37.5632 299.738C37.2375 300.311 37.0296 300.942 36.9517 301.597C36.8738 302.251 36.9274 302.914 37.1094 303.548C37.2913 304.181 37.5981 304.772 38.0115 305.285C38.4249 305.798 38.9367 306.223 39.5168 306.536Z" fill="#2E2E2E"/>
<path d="M292.279 402.566L306.099 416.162C307.292 417.338 308.899 417.999 310.574 418.001H345.136C346.208 418.006 347.258 417.698 348.158 417.116C349.059 416.533 349.77 415.701 350.205 414.721C350.64 413.742 350.781 412.656 350.61 411.598C350.438 410.54 349.963 409.554 349.241 408.761C348.333 407.745 347.077 407.105 345.721 406.966L326.55 404.999L292.279 402.566Z" fill="#2E2E2E"/>
<path d="M166.07 232.513C166.07 232.513 192.8 239.949 210.62 242.167C228.44 244.384 227.19 236.992 227.19 236.992L229.368 227.655C235.088 218.336 238.41 198.51 238.41 198.51L240.707 183L244.06 188.9L254.897 199.817L255.029 199.922C254.699 194.708 254.95 187.382 256.164 177.403C258.963 154.303 268.229 156.983 268.229 156.983L266.869 155.491C260.467 144.839 240.029 133.579 233.5 130.886C226.97 128.193 229.764 132.008 230.596 134.846C231.427 137.684 229.051 145.67 219.534 141.605C210.017 137.539 209.537 128.695 209.537 128.695H205.115C177.989 131.955 164.195 146.423 164.195 146.423C193.011 153.221 186.398 177.663 186.398 177.663L183.784 180.052C173.554 188.922 172.841 197.476 173.726 201.04C174.61 204.604 180.92 209.4 192.311 212.181C203.703 214.961 205.775 214.966 208.349 210.042C210.923 205.119 213.924 204.511 218.029 203.772C222.135 203.033 227.164 205.95 226.015 208.247C224.867 210.544 224.035 208.537 226.895 214.741C229.755 220.945 228.427 224.1 220.735 229.816C213.044 235.531 178.847 232.324 178.847 232.324C162.493 227.801 166.07 232.513 166.07 232.513Z" fill="#2E2E2E"/>
<path d="M228.589 128.841V129.778V130.016C236.234 131.927 243.434 135.307 249.788 139.969C250.818 140.721 251.821 141.487 252.811 142.292C252.837 139.058 252.56 135.811 251.517 132.748C250.672 130.12 249.081 127.795 246.937 126.056C245.049 124.551 242.818 123.588 240.574 122.717C238.33 121.845 236.126 121.08 234.067 119.905C232.331 118.956 230.816 117.651 229.618 116.077C229.199 115.508 228.937 114.837 228.859 114.134C228.782 113.431 228.892 112.72 229.178 112.073C228.976 112.059 228.777 112.019 228.584 111.954L228.589 128.841Z" fill="#6159FF"/>
<path d="M228.589 128.841V129.778V130.016C236.234 131.927 243.434 135.307 249.788 139.969C250.818 140.721 251.821 141.487 252.811 142.292C252.837 139.058 252.56 135.811 251.517 132.748C250.672 130.12 249.081 127.795 246.937 126.056C245.049 124.551 242.818 123.588 240.574 122.717C238.33 121.845 236.126 121.08 234.067 119.905C232.331 118.956 230.816 117.651 229.618 116.077C229.199 115.508 228.937 114.837 228.859 114.134C228.782 113.431 228.892 112.72 229.178 112.073C228.976 112.059 228.777 112.019 228.584 111.954L228.589 128.841Z" fill="#6159FF"/>
<path d="M122.959 201.891C125.831 203.946 129.025 205.512 132.41 206.524C133.866 206.973 135.345 207.343 136.84 207.633C130.931 193.707 135.353 175.385 154 155.849C157.193 152.498 160.593 149.351 164.178 146.424C169.972 141.712 175.12 138.201 181.192 135.376C183.911 134.121 186.703 133.033 189.552 132.115C194.606 130.433 199.822 129.287 205.115 128.697C206.317 128.551 207.504 128.446 208.706 128.38C208.413 126.317 208.471 124.219 208.877 122.176C209.986 116.566 211.918 113.341 215.429 108.919C217.629 106.133 221.065 99.4806 216.485 97.1838C213.594 95.745 213.33 92.7838 214.69 91.0238C215.838 89.4926 218.161 88.793 221.026 90.5838C223.006 91.851 225.355 91.9302 227.626 91.3098C229.389 90.2824 230.918 88.8977 232.114 87.2442C235.44 82.479 235.559 75.2586 230.354 71.7606C227.516 69.8466 223.899 69.3846 220.507 69.7542C218.988 69.921 217.49 70.2483 216.041 70.731C216.034 70.7279 216.027 70.7266 216.021 70.7266C216.014 70.7266 216.007 70.7279 216.001 70.731C209.841 74.0442 205.463 80.169 203.351 87.0726C202.11 91.1514 200.711 95.1906 199.074 99.1506C197.728 102.398 196.791 106.345 193.794 108.562C192.542 109.488 191.12 110.161 189.61 110.542C183.947 114.133 176.093 112.06 169.902 111.295C164.953 110.618 159.913 111.124 155.197 112.773C149.917 115.444 145.376 119.707 141.694 125.251C135.608 134.425 142.05 147.652 131.873 154.885C128.793 157.063 125.273 158.383 121.907 160.073C117.102 162.515 113.221 165.987 111.787 171.333C108.953 182.117 113.996 195.383 122.959 201.891Z" fill="#6159FF"/>
<path d="M371.8 418H131.014" stroke="black" stroke-width="1.98" stroke-miterlimit="10"/>
<path d="M237.42 82.9001C238.039 84.1823 238.568 85.5054 239.004 86.8601C239.638 89.0601 238.952 90.4241 239.915 92.5229C240.245 93.2489 240.72 94.4765 241.235 95.7173C241.38 95.4269 241.512 95.1893 241.592 95.0045C245.367 86.5961 240.404 82.5437 238.014 81.1577C237.862 81.7535 237.664 82.336 237.42 82.9001Z" fill="#6159FF"/>
<path d="M237.42 82.9001C238.039 84.1823 238.568 85.5054 239.004 86.8601C239.638 89.0601 238.952 90.4241 239.915 92.5229C240.245 93.2489 240.72 94.4765 241.235 95.7173C241.38 95.4269 241.512 95.1893 241.592 95.0045C245.367 86.5961 240.404 82.5437 238.014 81.1577C237.862 81.7535 237.664 82.336 237.42 82.9001Z" fill="#6159FF"/>
<path d="M153.767 224.753C151.461 242.934 153.327 274.473 190.559 298.602C197.261 302.945 203.293 309.079 209.202 314.381C225.319 328.945 240.651 344.355 255.134 360.546C264 370.375 273.051 380.706 282.04 390.659C286.648 395.746 291.306 400.785 296.014 405.778C299.481 409.434 304.981 417.996 310.556 417.996H344.815C347.895 417.996 350.693 415.475 350.649 412.382C350.624 411.045 350.118 409.763 349.223 408.77C348.315 407.753 347.06 407.113 345.703 406.974L326.533 405.008L233.908 257.704C229.13 250.101 224.893 237.588 228.589 229.39C242.669 198.212 241.459 167.993 241.459 167.993" stroke="black" stroke-width="1.98" stroke-miterlimit="10"/>
<path d="M201.723 308.08C197.683 322.27 191.163 336.68 185.777 345.753C183.826 349.065 181.253 351.969 178.2 354.306C167.165 362.759 151.567 361.857 140.985 352.85L88.3566 308.053L62.2866 284.949L45.681 305.308C44.8961 306.263 43.7811 306.889 42.5568 307.062C41.3325 307.236 40.0877 306.944 39.0682 306.245C38.0486 305.545 37.3284 304.488 37.0497 303.284C36.7711 302.079 36.9542 300.814 37.563 299.737L58.0098 263.842C58.6527 262.707 59.7201 261.873 60.9776 261.524C62.2347 261.175 63.5793 261.339 64.7154 261.981L75.6846 268.141L138.534 303.341C139.58 303.926 140.749 304.254 141.946 304.299C143.144 304.344 144.335 304.104 145.421 303.599C146.507 303.094 147.459 302.338 148.196 301.394C148.933 300.449 149.436 299.343 149.662 298.167L157.107 259.13" stroke="black" stroke-width="1.98" stroke-miterlimit="10"/>
<path d="M228.589 109.34V128.7V129.637V129.874C230.582 132.778 231.585 136.914 229.684 139.994C227.137 144.126 221.514 143.44 217.95 141.13C216.901 140.451 215.899 139.701 214.953 138.886C211.781 136.129 209.727 132.307 209.18 128.141C208.887 126.078 208.945 123.98 209.352 121.937C210.47 116.331 212.397 113.11 215.912 108.675C218.112 105.903 221.544 99.2416 216.96 96.9448C211.587 94.2652 215.31 86.4244 221.5 90.3448C226.305 93.394 233.209 89.5924 236.06 85.5048C239.386 80.7396 239.505 73.5192 234.3 70.0212C231.462 68.1072 227.845 67.6452 224.453 68.0148C214.117 69.15 206.76 77.2284 203.817 86.838C202.576 90.9168 201.177 94.956 199.54 98.916C198.194 102.163 197.256 106.11 194.26 108.328C188.54 112.591 180.294 110.36 173.84 109.568C160.402 107.918 149.565 113.872 142.16 125.017C136.074 134.191 142.516 147.417 132.339 154.651C129.259 156.829 125.739 158.149 122.373 159.838C117.568 162.28 113.687 165.752 112.275 171.098C109.424 181.869 114.475 195.135 123.429 201.643C127.534 204.626 132.339 206.408 137.328 207.385" stroke="black" stroke-width="1.98" stroke-miterlimit="10"/>
<path d="M255.117 144.8C255.143 144.553 255.152 144.316 255.165 144.082C255.389 139.828 255.363 135.419 253.977 131.322C253.127 128.697 251.534 126.374 249.392 124.634C247.5 123.134 245.269 122.162 243.034 121.29C240.799 120.419 238.581 119.662 236.527 118.483C234.787 117.538 233.27 116.231 232.078 114.651C231.661 114.083 231.4 113.415 231.323 112.714C231.245 112.014 231.354 111.305 231.638 110.66" stroke="black" stroke-width="1.98" stroke-miterlimit="10"/>
<path d="M224.422 104.975C225.98 107.201 228.092 109.604 230.754 110.47C234.199 111.592 236.518 108.666 237.754 105.82C238.493 104.126 239.004 102.322 239.602 100.57C239.796 99.9939 239.915 99.7167 240.575 99.6903C241.235 99.6639 241.93 99.7959 242.607 99.7959C242.656 99.7946 242.703 99.7805 242.744 99.7554C242.785 99.7304 242.819 99.6947 242.841 99.652C242.864 99.6094 242.875 99.5618 242.874 99.5134C242.872 99.4655 242.857 99.4184 242.832 99.3779C241.921 97.9919 240.561 94.2123 239.875 92.6987C238.92 90.5999 239.611 89.2403 238.969 87.0359C238.531 85.6825 238.005 84.3594 237.393 83.0759" stroke="black" stroke-width="1.98" stroke-miterlimit="10"/>
<path d="M238.41 79.0062C238.41 79.0062 247.804 82.6098 242.951 93.4382C242.652 94.0938 241.917 95.4622 241.569 96.0782" stroke="black" stroke-width="1.98" stroke-miterlimit="10"/>
<path d="M339.738 48.1321C339.738 48.1321 339.79 48.1585 339.896 48.1981L339.738 48.1321Z" fill="#6159FF"/>
<path d="M237.891 105.508C237.139 105.611 236.375 105.436 235.742 105.017C235.11 104.597 234.652 103.961 234.454 103.228" stroke="black" stroke-width="1.98" stroke-miterlimit="10"/>
<path d="M239.48 91.006C237.535 89.422 235.401 91.446 234.098 92.9156" stroke="black" stroke-width="1.98" stroke-miterlimit="10"/>
<path d="M209.194 128.145C202.671 128.558 196.229 129.811 190.028 131.872C179.908 135.19 172.938 139.471 164.67 146.181C161.086 149.113 157.687 152.265 154.493 155.619C135.828 175.155 131.415 193.485 137.333 207.407C142.142 218.75 153.23 225.786 164.591 229.372C172.023 231.712 179.767 232.72 187.537 232.944C196.799 233.208 206.14 232.856 215.257 231.096C219.098 230.357 223.525 229.75 225.817 226.182C228.11 222.613 228.303 217.8 226.6 213.976C225.003 210.416 220.691 206.588 216.793 209.382C216.361 209.694 216.005 210.1 215.753 210.57C215.5 211.04 215.358 211.56 215.336 212.093" stroke="black" stroke-width="1.98" stroke-miterlimit="10"/>
<path d="M202.15 151.685C202.634 166.275 190.27 174.411 190.27 174.411C186.169 177.733 182.183 181.301 178.83 185.389C176.687 187.998 174.698 190.92 173.713 194.189C172.976 196.418 172.988 198.827 173.748 201.049C174.588 203.103 175.976 204.887 177.761 206.205C181.096 208.815 185.153 210.165 189.174 211.336C193.605 212.604 198.119 213.565 202.682 214.213C205.322 214.592 206.435 213.773 207.641 211.49C208.732 209.422 209.625 207.028 211.645 205.677C214.443 203.799 218.201 203.363 221.439 204.137C226.433 205.325 227.709 209.285 223.639 210.086" stroke="black" stroke-width="1.98" stroke-miterlimit="10"/>
<path d="M199.1 250.672L123.222 232.337L105.165 307.067L178.94 325.406L181.307 324.319L199.1 250.672Z" fill="white"/>
<path d="M164.089 240.166C167.688 214.971 175.49 208.741 180.567 207.496L180.233 207.311C164.903 201.345 154.273 230.864 152.016 237.768L164.089 240.166Z" fill="#D7E8F0"/>
<path d="M163.878 242.163C167.477 216.968 175.49 208.723 180.567 207.495L180.233 207.31C164.903 201.344 153.833 232.284 151.567 239.184L163.878 242.163Z" fill="#D7E8F0"/>
<path d="M180.233 207.31C162.897 200.569 151.567 239.183 151.567 239.183L163.887 242.162C171.046 203.442 186.406 210.482 186.406 210.482C185.865 210.319 180.233 207.31 180.233 207.31Z" stroke="black" stroke-width="1.98" stroke-miterlimit="10"/>
<path d="M122.377 235.899L105.167 307.091L165.03 321.562L182.239 250.37L122.377 235.899Z" fill="#6159FF"/>
<path d="M123.291 232.131L105.169 307.094L168.2 322.332L186.322 247.368L123.291 232.131Z" fill="white"/>
<path d="M123.587 237.832L107.98 302.395C107.537 304.225 108.663 306.068 110.493 306.51L163.727 319.379C165.557 319.822 167.4 318.696 167.843 316.866L183.45 252.303C183.892 250.472 182.767 248.63 180.937 248.187L127.703 235.319C125.873 234.876 124.03 236.001 123.587 237.832Z" fill="#6159FF"/>
<path d="M123.235 232.365L105.169 307.093L168.201 322.33L186.266 247.602L123.235 232.365Z" stroke="black" stroke-width="1.98" stroke-miterlimit="10"/>
<path d="M186.531 247.661L168.466 322.389L181.048 325.431L199.113 250.702L186.531 247.661Z" fill="white"/>
<path d="M186.531 247.661L168.466 322.389L181.048 325.431L199.113 250.702L186.531 247.661Z" stroke="black" stroke-width="1.98" stroke-miterlimit="10"/>
<path d="M181.042 325.407L176.99 314.984L168.458 322.367" stroke="black" stroke-width="1.98" stroke-miterlimit="10"/>
<path d="M192.813 249.155L176.99 314.984" stroke="black" stroke-width="1.98" stroke-miterlimit="10"/>
<path d="M331.615 127.93C331.378 127.97 331.175 128.009 330.916 128.062C328.535 128.478 326.279 129.425 324.316 130.834C322.164 132.498 320.211 135.388 319.26 137.874C317.823 141.65 316.243 145.363 314.521 149.015C311.922 154.645 308.829 160.034 305.281 165.119C301.599 170.293 297.177 175.538 291.606 178.759C290.907 179.181 290.17 179.54 289.406 179.828C288.469 180.224 275.282 165.053 273.83 163.363C268.009 156.592 261.99 149.886 255.165 144.092C253.436 142.613 251.645 141.188 249.806 139.854C243.448 135.189 236.244 131.804 228.594 129.888" stroke="black" stroke-width="1.98" stroke-miterlimit="10"/>
<path d="M355.34 127.374C355.365 127.381 355.393 127.381 355.419 127.374C361.517 128.087 359.128 134.661 354.838 134.45C350.099 134.212 345.374 134.45 340.648 134.529C339.345 134.486 338.048 134.725 336.846 135.228C334.47 136.364 334.246 138.898 333.89 141.195C333.414 144.204 332.873 147.214 332.235 150.197C330.994 156.111 329.463 161.945 327.707 167.727C326.572 171.476 325.318 175.207 323.998 178.898C320.144 189.775 315.286 201.312 307.115 209.698C302.601 214.345 296.688 217.777 290.022 217.275C280.636 216.576 271.608 211.863 263.648 206.504C263.614 206.481 263.583 206.455 263.555 206.425C260.585 204.425 257.737 202.247 255.028 199.904C255.028 199.904 244.059 190.136 240.706 182.982" stroke="black" stroke-width="1.98" stroke-miterlimit="10"/>
<path d="M372.68 121.463V122.079C372.68 126.329 369.256 127.059 366.3 127.13L309.069 128.45C306.561 128.516 304.453 126.32 304.4 123.579V123.465C304.4 120.776 306.372 118.541 308.849 118.479C308.849 118.479 340.863 117.577 365.657 116.895C366.128 118.396 367.281 119.557 368.711 120.464C369.906 121.182 371.287 121.53 372.68 121.463Z" stroke="black" stroke-width="1.98" stroke-miterlimit="10"/>
<path d="M403.085 60.9049C403.084 61.6054 402.918 62.2958 402.601 62.9201L377.023 115.39C376.723 115.996 376.295 116.531 375.769 116.956C375.242 117.381 374.63 117.687 373.974 117.854C372.917 118.122 371.8 118.006 370.819 117.529C370.036 117.143 369.376 116.546 368.915 115.805C368.454 115.064 368.21 114.208 368.21 113.335C368.214 112.637 368.373 111.949 368.677 111.32L394.267 58.8457C394.732 57.9085 395.5 57.1561 396.446 56.71C397.393 56.2643 398.462 56.1512 399.481 56.3888C400.499 56.6268 401.408 57.2019 402.059 58.0207C402.71 58.8396 403.065 59.8542 403.067 60.9005L403.085 60.9049Z" stroke="black" stroke-width="1.98" stroke-miterlimit="10"/>
<path d="M333.485 50.1125C341.247 50.1125 347.539 43.8203 347.539 36.0587C347.539 28.2971 341.247 22.0051 333.485 22.0051C325.723 22.0051 319.431 28.2971 319.431 36.0587C319.431 43.8203 325.723 50.1125 333.485 50.1125Z" fill="#6159FF"/>
<g opacity="0.72">
<path opacity="0.72" d="M321.627 79.4283C325.899 79.4283 329.362 75.9655 329.362 71.6931C329.362 67.4211 325.899 63.9579 321.627 63.9579C317.355 63.9579 313.892 67.4211 313.892 71.6931C313.892 75.9655 317.355 79.4283 321.627 79.4283Z" fill="#6159FF"/>
</g>
<path d="M365.173 54.8117L357.582 58.8584C354.829 60.3258 353.787 63.7481 355.254 66.5012L359.301 74.0921C360.768 76.8456 364.19 77.8879 366.944 76.4201L374.535 72.3739C377.288 70.906 378.33 67.4841 376.863 64.7306L372.816 57.1397C371.348 54.3867 367.927 53.3443 365.173 54.8117Z" fill="#6159FF"/>
<path d="M368.215 74.263L373.71 71.3326C374.856 70.7174 375.712 69.6742 376.091 68.4303C376.47 67.186 376.342 65.8427 375.734 64.693L372.214 58.093C371.6 56.9463 370.557 56.0896 369.312 55.7104C368.068 55.3311 366.724 55.46 365.575 56.069L365.205 56.267C363.832 58.1722 362.006 61.4326 364.765 62.4578C368.725 63.9406 367.568 66.1626 366.085 69.0094C364.827 71.3986 364.505 74.1926 368.215 74.263Z" fill="white"/>
<path d="M359.656 66.2731C360.803 66.2731 361.733 65.3429 361.733 64.1963C361.733 63.0492 360.803 62.1195 359.656 62.1195C358.509 62.1195 357.579 63.0492 357.579 64.1963C357.579 65.3429 358.509 66.2731 359.656 66.2731Z" fill="white"/>
<path d="M334.075 100.936C334.845 101.31 335.664 101.571 336.508 101.71C338.058 101.948 339.643 101.78 341.109 101.221C342.574 100.663 343.87 99.734 344.868 98.5249C345.638 97.5657 346.215 96.3645 347.024 95.3965C347.578 94.6903 348.319 94.1539 349.163 93.8477C349.452 93.7861 349.722 93.6545 349.95 93.4649C350.505 92.8929 349.563 92.4089 349.374 91.9469C349.09 91.2015 349.09 90.3778 349.374 89.6325C350.096 87.6731 350.117 85.5237 349.432 83.5508C348.746 81.5778 347.398 79.9036 345.617 78.8137C343.835 77.7234 341.731 77.2852 339.662 77.5729C337.594 77.8611 335.689 78.8577 334.273 80.3925C332.874 81.9017 332.034 83.8289 331.162 85.6725C330.388 87.3137 329.565 88.9461 329.138 90.7105C328.148 94.8905 330.384 99.1365 334.075 100.936Z" fill="#6159FF"/>
<path d="M341.934 86.0862C343.015 86.0862 343.892 85.2097 343.892 84.1282C343.892 83.0466 343.015 82.1702 341.934 82.1702C340.852 82.1702 339.976 83.0466 339.976 84.1282C339.976 85.2097 340.852 86.0862 341.934 86.0862Z" fill="white"/>
<path d="M339.368 91.4902C340.449 91.4902 341.326 90.6137 341.326 89.5322C341.326 88.4511 340.449 87.5742 339.368 87.5742C338.286 87.5742 337.41 88.4511 337.41 89.5322C337.41 90.6137 338.286 91.4902 339.368 91.4902Z" fill="white"/>
<path d="M336.961 96.5583C338.042 96.5583 338.919 95.6814 338.919 94.6003C338.919 93.5188 338.042 92.6423 336.961 92.6423C335.879 92.6423 335.003 93.5188 335.003 94.6003C335.003 95.6814 335.879 96.5583 336.961 96.5583Z" fill="white"/>
<g opacity="0.54">
<path opacity="0.54" d="M289.961 108.913C290.555 108.834 291.144 108.712 291.721 108.547L298.347 106.682C300.375 106.11 302.509 105.476 303.948 103.932C306.615 101.067 305.752 96.5178 304.718 92.7426C303.876 89.6538 303.033 86.565 302.188 83.4762C301.607 81.3466 301.009 79.1818 299.852 77.3162C298.695 75.4506 296.864 73.849 294.682 73.5058C293.076 73.255 291.448 73.6862 289.877 74.113L283.519 75.873C281.433 76.4406 279.233 77.0786 277.773 78.6758C275.177 81.5138 276.013 85.9666 277.007 89.6758L279.546 99.1578C281.103 104.856 284.021 109.661 289.961 108.913Z" fill="#6159FF"/>
</g>
</svg>
